<mxfile host="Electron" modified="2023-07-31T10:43:40.900Z" agent="Mozilla/5.0 (Windows NT 10.0; Win64; x64) AppleWebKit/537.36 (KHTML, like Gecko) draw.io/21.6.1 Chrome/112.0.5615.204 Electron/24.6.1 Safari/537.36" etag="mAxN0fjmxLwDrJlWBrw0" version="21.6.1" type="device">
  <diagram name="Страница 1" id="V0LJcIurU9J_Lu3cLsTY">
    <mxGraphModel dx="1418" dy="868" grid="0" gridSize="10" guides="1" tooltips="1" connect="1" arrows="1" fold="1" page="1" pageScale="1" pageWidth="827" pageHeight="1169" math="0" shadow="0">
      <root>
        <mxCell id="0" />
        <mxCell id="1" parent="0" />
        <mxCell id="43hzGaEq3vHwYV2Zz9O_-1" value="" style="shape=image;aspect=fixed;image=data:image/png,iVBORw0KGgoAAAANSUhEUgAAAg4AAAMUCAIAAABb4zgnAAAABmJLR0QA/wD/AP+gvaeTAAAgAElEQVR4nOzdf3BT550v/s+xZGEbywYbA45RwUWCGpTb4i4hKyUkZUkyEmnib9JxOttm3B8ZKXeHVprvXk+7E3LBm2SSDtO90gyzgz1sbny37bfV9odzi6U7ocVJwLpx2NB4I8zGEiG0CcYQG4SDf0lH5/vHIx0f/fKRbf3wj/frD0Z69JznPLYPz+f5cXQeThAEAgAASK+o0BUAAIDFDqECAABkIFQAAIAMhAoAAJCBUAEAADIQKgAAQAZCBQAAyECoAAAAGQgVAAAgQ1noCgDAcjY+Pn7u3LnRW7eLOE6Brmnh8BGKCJG1lZX33LO7rKxsrodzeLAHAORIX1/fteHrIZX6jrIypCjluSIirtCVWpkEhRAp5idWh4PK6bHaDRv27LlnTscjVABATrxx6g/jU6HRMk2oaFWh6wIziiOTVeN/KS9ZtX//32R+FAaEAJB977zzzvjk9I3V9YgTi02oqOTG6vrPJ6f6+voyPwqhAgCybHx8fPj6jdHVX4hwikLXBVKIcMqbZZprw9fHx8czPAQTUACQZW+99daNCWGkpE6a+C//PSR7YNVG1X2Pf1xRVbOqdM7rrjBX1ROf1JQVPfDAA5lkxh1QAJBlo7du31m9KSFx21fWFBURx3FERKyDyhEJ0X8jgiAIVL5GceHc2Z2776up25zvSq8846o1o7c+yTAzQgUAZFkRRyFFSUJi87PrH9uhJKKIwG7cJD4i8BEKCxTmKRwRpsPU8+H4z/7pyqS+sRC1XnGmikoqM74fDaECALJMUcTxSasUnCCMjYf/fH08xAsKRVHl6uKhm5OhsFBdWTo0OjEVErR1FXwovMBT+/rePvbjZ+5/9Klv/f0LCyxqKZq8PRL89FLKjyrrtpZUVEtTIpxCUZRprECoAIBcSGyDIoLACzQZikxN80qlokSlnJiKTIWF8lDkzlRkeio0NjERmp7Of0VP/6bTdewlMbr8/KfPnzn5q4OvnNDv2Zv/yizQqtWV1wf/FBofS0gvLi1fp9uVlH0O33FBqACAfIjwPB9RhsKRqbAQEcLTvGoqJEyFwlNhYWo6EgpNT06t4sPyS99Zt+/Jln1PtuT/vLnAKZR33W280vd/EtLv+vL9CmXxQkpGqACAfOD5CFuc4CPEcdH1iTBPIZ7CEQpHKMxTOMynO5x19tlrNgK48emV57/9kDTP8Z7BTGrCJqnY6607G01P/504Z3X6N53sLCzD1p2Nly6cZyMMdtTWnY2tx345v99AflTX77zh/9P46LCYUrZ2ffWWHQssFt+rAIB8iITDfIR4gfgI8REhJAjhaJAQX1AknHqtgrXgzQefO94z+MLPThGRGCeO9wwe7xncujPTlXCxxWcHJny678mW+x99iogOvnLieM/gV79mIqL+s6eI6Ponl4mIpSxqHFe360FpQt2uB4lb6PNUECoAIB8ifDjEU4inEM+HwpFwmKZ5CvOR6XAkzEfCvBDiBT5NqBj6OEBE7/V4iKimbvO3/v6FD955k4iaDz4312qwdt/09N+xt7MPEdjEFBtnsLPffe+Dcz1j/qnXa9Zs0rLXazQ69YYvLLxMhAoAyIdwiA9FaGI6PD01NTk1PTE5OT01NT09NTExOR2aCofCIV7g00xAPfzNZ4jo0oXzz35t27Nf23b6N50seKzfVJ/rarNBxunfdF66cP7+R59aKl/4qNv1IFek4IqK7vpydhbnESoAIB/CYT4c5lcp+GJFRFHEh0PTyiK+WCGEQ9PKooiyuIiPkMCnDhU1dZvZfBFruN/r8dRu0VJsUiinvnzfQ0TkOvaS+HpJWFW+pkb3lZptjSXqtVkpEKECAPIhHAoVFxdtXFe+cV3FurXq0tKS9evU66vVZatL16+rWL+uklOohEgk5bE//+nzNz69QrHhxV31OjYRxCaFiOjShfMZVoM1955//Wex5IQMCUFIv2evuBCytG6f3aj/6407781WabgDCgDy4bPRCbf3Lzy7EUoQhAgJghAR2GtOIIGIJsan0h0u3uy0dWcj+wJE88HnXMdeevZr2yh2q1Im1dDv2XvwlRPHfvyMeGDCWGHfky3v9Xhcx15yHXuJrXvfVa9js0/z/MkLRKlK/ML8QuBxgQCQZSdPnvy0fHtC4o1Pr1w4d5YNDmZRU7d5Hs+AOnrwm5cunM/wZtm5YkHlhZ+dWioLFZmr+/zDRx99NJOcGFUAQD5UVNXs3H2f7POdSkrLKqpqFniu5K9ciOYaTnx9bxPR1p2Nyy9OzAlGFQCQZSlHFbAIZT6qwLI2AADIQKgAAAAZCBUAACADy9oAkH11n39Y6CpANiFUAECWvffee4cPHy50LUBeW1sblrUBACA7ECoAAEAGQgUAAMhAqAAAABkIFQCQJ8O3b7/idl+7dSsUKsAe2rAQCBUAkA9DweCv33//mUceOdHX99HVq9PT04WuEcwBQgUA5NxQMPi7/v7v7d27TqGw7d//2sDApaGhHEULIydl5YzOQFKegHMmV/znAacxmuSMLygp58qCUAEAuXU1GPxtf/939+4tJSIitULR+vDDxy9eDOQoWhgcfkHUbkj6POA06lzNsTxuvV03EwMC3S6yWMjVHSBbryAIguB3GGIF9tq02a/tEoFQAQC59drZs08ZjaWSlCqF4hu7dv2ivz8YDLIUSTc/2m4bjU6nleM4qyfu4+inyfkzd9ROjk6x1Te1+x3k6mZlBLpd1NzapPfGEiAKoQIAcuv7RuOJ06fHJPtmXxgZ6TpzZl95+cTEBEvRRvvwguDW2496iIi89oEmQRDaTURW3cAh9qm/2dXiDKTML/LadZIJKG9SfXyG5gPS4YF2m9474CeKRooDWlOTBbEiAUIFAORWdXn5E9u3v3zq1CjPE9GFkZETp0/vKy2trq5Wq9XRTOIwwdxBvsEAERkcrabohz7qMLNPdXYva9aT84vkJqDSikYKIsSKJAgVAJBbSqVyy8aNTzc0tJ06dWZ4+NWenv1lZZs2bdJoNBUVFSzPzOqB35GicY9v/U2y+WeVOL0UGPQZduiIAt0ub3REYu4gxIo4CBUAkHMqlWprba21oeGNd989UFWl0Wg0Gk1lZaVCoYjmiE0KBbpdyVNGem/iJNPs+WfX6iB7i7jA4bHq7NR8QEuBbpfX4o7FIzfGFXEQKgAgH1Qqlba29of33qvT6RLjBNEhfXSBoWVAnzxKaPc7fOa4ZezZ88eZWbqwsnCjtfX6m12xRDO5hV6blgLdLpqZ8sIcVALsrQ0AWdbW1oaHkC8Jmf+lMKoAAAAZCBUAACADoQIAAGQgVAAAgAyECgAAkIFQAQAAMhAqAABABkIFAADIQKgAAAAZCBUAACADoQIA8uTOx613PnqWD4/jeUJLjrLQFQCAFeHO4IMqRUhQ0tR/6Ka+8JZ6zRalEu3PkoFRBQDk3OS1jpKaL1FpCafSlxSXf37Jdvv27ZyPLQJO45x3U4XUECoAIOe4olIhckuhIMWdPgqHJ+7cDgaDkUgkXf6ZJn4uzX0mOcUtucWHkhvjH1Eu2bV7ZttuaR6jdDvvgNNodP5AWuj89vte9BAqACDnVq1/+s7wlcjUHeHzsbHJsQ9GWjiOmyV/b69NO8vHCzlK3FDP7/C96AwQ9fodBoPDL7SbiALOme31BMHfPBDdsUKahwwWvatFGgui+3xH8wiCIMyr+osaQgUA5EX5dzjFqonPR33Dezbe1VBZWVlUJG1/PFZJZ18cHzhb7LFNTGPdfvJY0/Tao0eJ4wKdfbYN8vwDXv22hBb9qJ0cnWIzr7W1p2zyd7Qe0idty7fMIVQAQD6oVCriiCdlUPVfN2/erFarpQMLp9FMbsne2TG2zlhX3W3p6PIQEXm6OiyHZum1W3V2vTv9ttvipnhmn2TTuyhfbB9WGaZ2N5mtKylYIFQAQD6wwFAkTKxdU65WqxNuf4rbrDQlUxOLFZ6uDkvTbFl9hlmLmpmAao6fRpKKDUzSrzmYWqPzVysEQgUA5I/AFQnzvEefxQrZSJEx7Ta9d8Afn6aP7qettfWmGZTMHG7rbHYd7c5GTZYChAoAyIeSDd+ZuDV0i2ssLS1VKBQJnzZT+sn/WINuanX4zKmmjeLFmnsKdLtmW6vwdHUYduji01odZE871EiktR0i+6zLIcsIvgIDAHnC150Ll4xsLC1VqVQJH9k6HUZddO3C4pZ830JrO2ThzFyHweHvtR1oNrhIbjGh3a3ndJydyGCxpFmrsMfOY9MSGXV2L5GOG3AL7SZbr5+MsQxkcPjZyaR5JGWZ2t2Wjhfn8BtYujh8wx4Asqutre3w4cPZL9dj5V7c4V9+N6IWTuZ/KUxAAcDSEH/r08zNtcv3e2+LCCagAGBpMLULprh3cZNBkFMYVQAAgAyECgAAkIFQAQAAMhAqAABABkIFAADIQKgAAAAZCBUAACADoQIAAGQgVAAAgAyECgDIk+Hbt19xu6/duhUKhQpdF5gbhAoAyIehYPDX77//zCOPnOjr++jq1enp6ULXaKkLOI0zu8jObuEPyEKoAICcGwoGf9ff/729e9cpFLb9+18bGLg0NDRLtBD31qaA01jwxwDG1SGhQgGncaYdNqZ7dqH02YZWD0l/wBTlxx2drsyAs8WudwvtpvjSWR4xJRpJBLc+8304UkKoAIDcuhoM/ra//7t795YSEZFaoWh9+OHjFy8G0keL3kX1pHHtgWaKbpdEgW4XSfbfDnS7yGIRP5XuxqqLNtMBp5Gb2ThccFPXbAOBhALTlEnkOWqX7jFriZXfa9OSxxo9n9/hi+4Abmp1zLJ5VAYQKgAgt147e/Ypo7FUklKlUHxj165f9PcHg8FY2kzX2OqZ6XQ7W+xer10n7SGTx5pmOsVodDrju9OxPbJnuuRGo9VqZBmiH85M4czkTihfEiv8A4mRorm1Sdx4b+aIbfrYy24XOfztYqNuam+fZRe/tAXGl0merg5Dc7pNnsQ9ZbUHmg2+wUDCy3lBqACA3Pq+0Xji9OkxnhdTLoyMdJ05s6+8fGJigqU4jTMdb2lTaut0GFi32m3pYN3x+G0r4njtA02s627peNEZiO6RzVL00U6117ejUxDclg5zC3XO5CQiq27gkNh/j5+uEffh9nR16LfFR4oDWlOTJbFpl+zG6vJKjpBUVSdOGunEXVfTFxhfZmDQFx8pOswpt+yQ7B+eaivxOUCoAIDcqi4vf2L79pdPnRrleSK6MDJy4vTpfaWl1dXVarWa5XGR3JbZpiYWKzxinzmZIVaIbkd0q1RxoGDuINapZk2sbodBfBE72hdrcDmd3ZvQrEbPHhj0SU4uTkaJTbsYAKS79SXt4M2q6o9NSQl+hyFdgZSmzPhfTftMPEy/IqHbsZBhBUIFAOSWUqncsnHj0w0NbadOnRkefrWnZ39Z2aZNmzQaTUVFRcbFsNZ6tkiRzKhzNfvjm+NZSJtvIWGayNRk8Q16ul36uEgRmxwzd5DX1R2IluB3GCSRJuVkUkopChRrFV9mGpK4Fy1x0CcGKv9AyuFNhhAqACDnVCrV1tpaa0PDG+++e6CqSqPRaDSayspKhULBMjTPsugaayJNrQ6f2eyTG37EiU3TBLpdXrm8eu9sC7+mJr3dbE+IFJaZ1WrJlJHW1usmc2wRpNVB9pnlaPJY093fmr7ApDK12yQBSCwx0M0mu5pic3WxBKL4qDEPCBUAkA8qlUpbW/vDe+/V6XQJcYKIbJ0Onzn+Bk9Gaztk6TCzWXjtgWZD+sXcVA7po7M3LQN62VFFu3+mDikWzk1NFkqYfZJELVOTxeu6Lh5jYoUZnQHS2nqlBZspzaAoVYFxwxFJmXGf6nZES9fZ9e52E5Gp3U1maQLFR4354ARBmPfBAADJ2traDh8+nP1yPdb08/UrTsBp1A0cSpwnSyfNry7zvxRGFQCwNMTf+iT93lm6gcBypmUDsQy/rW32OToXFGKVCzgWACB/TO2CKe6d0F64yiwCWluvYMssqyD0LvBkGFUAAIAMhAoAAJCBUAEAADIQKgAAQAZCBQAAyECoAAAAGQgVAAAgA6ECAABkIFQAAIAMhAoAyJPh27dfcbuv3boVCoUKXReYG4QKAMiHoWDw1++//8wjj5zo6/vo6tV0u2ovkNFozEWxgFABADk3FAz+rr//e3v3rlMobPv3vzYwcGloKEfRIp1AIMACyfzCifTBhB6PJyGRvXU6nWKK0+lMyCAmJlQm4amHYp5FBaECAHLrajD42/7+7+7dW0pERGqFovXhh49fvBjIe7Rgenvn8+w8g8EQ3d7U73/xxRdZot/vZ+lE5HQ6XS6XuIvewMBAQgaDweByuQKBuOff9vb2sjLF8m22DJ8BmFcIFQCQW6+dPfuU0VgqSalSKL6xa9cv+vuDwSBLMRqNYv+a9dkDgUBCnz05jzg+EDvpImkHn7XOLS0tXq+X47gvfvGL4lHJp7BarQlDhwR+v1+v1yen2+32zs5O8W17e4rn3h46dOjo0aOz/7oWJ4QKAMit7xuNJ06fHuN5MeXCyEjXmTP7yssnJiZYitfr7ezsFATB7XabzWYi0ul0brdbEASHw2G1WlPmmYXNZotuPOp2s9a5s7OT9dxra2tZnpSnaGpqYkeJQwexhtFt7Mzm1tbW5DMaDAatVmZLCJPJRETpgtBihlABALlVXV7+xPbtL586NcrzRHRhZOTE6dP7Skurq6vVajXLI7azrDENBAIGg4G9PnDgQEdHR8o8s5xUHDGYzWafz5cyT8pTsBSdLnEbaukEVEtLyyynZkOfdCsira2tCUFoSUCoAIDcUiqVWzZufLqhoe3UqTPDw6/29OwvK9u0aZNGo6moqMjRSXU6nd/vZy17dkvWarVerzc53ev1sujV29s7y0m1Wm1zc3N3d3d2a5VrCBUAkHMqlWprba21oeGNd989UFWl0Wg0Gk1lZaVCoUjI6fF42OjB6/WyiZru7m6LxZIuD0tJbnnFIYj0o4QmfpZTzIKdPTnd4XDMPtoQ2Ww2u92e4ekWCWyYCgD5oFKptLW1Pywrm5ycLC8vr6iokMYJthLAXrP7hfx+vzgLxFKS8zgcDpaS3NDr9fqEj7RarcVi4Tiuvr6epSSfYhbJZ6fYPBXHceKdS2Ieh8ORkEFaWvJayCKX+AMAACxQW1vb4cOH53SI0WiUvYc1kzwwJ5n/pTABBQAAMhAqAKDwMhkuYEhRQAgVAAAgA6ECAABkIFQAAIAMhAoAAJCBUAEAADIQKgAAQAZCBQAAyECoAAAAGQgVAAAgA6ECAPJk+PbtV9zua7duhUKhQtcF5gahAgDyYSgY/PX77z/zyCMn+vo+unq1ILtqFxzbkDWTnOI+r4sEQgUA5NxQMPi7/v7v7d27TqGw7d//2sDApaGhWaJF8l7ZmXyULo/RaJQ2u2yPbvaak5Dm8Xg8Yjpr3KUFJpcvfZuuTKfTqdfr2Z7byXkSdvl2u90Z7n6RHwgVAJBbV4PB3/b3f3fv3lIiIlIrFK0PP3z84sXArNFiIdimRqwJZv+Ku16LbTd7Id0GVdy7wul0ms1mIWb2cyUUmK5MIrLb7dJNucXytVqt1WpN2OV7se3CjVABALn12tmzTxmNpZKUKoXiG7t2/aK/PxgMshSn08n61Kx73tLSwrYScjqd4kesAy79SNxAO3m6RtyU1O/3Nzc3i+nd3d3Nzc16vT5h4zwxlhCRy+WS7njKxgHppCswoUxx576UhXR0dIi7fIs7gTc3Nw8ODs5y6nxCqACA3Pq+0Xji9OkxnhdTLoyMdJ05s6+8fGJigqXY7XbWxdbr9UTU2dnJ+uY2m81ms7GP3G730aNHpR/pdDqx/54wXbNt27aBgQEi6urq2rZtm5jucrkOHDjQ1NTkcrmk+aXboHq93uQ2ncUnRjpWSFdgQpmDg4PSiEWxGSen0ylNlO4CK/4IiwFCBQDkVnV5+RPbt7986tQozxPRhZGRE6dP7ystra6uVqvVYjY2TZ/chReHDmazWexxS49ibXfCvtkmk6mjo4OIfD4f67CTZDLKZDJ5vd5AICAGgBdffFHcDyPl1tnitBKLTOkKJElQkZaZQCzKbrenW77W6XTJP2+hIFQAQG4plcotGzc+3dDQdurUmeHhV3t69peVbdq0SaPRVFRUsDys3ZSu64p0Op3f75c20CJp8528qGCxWDweDxumMN3d3WI7zt6yEvx+vzTSiI2+rOQCxVollJlOQlgKBAJiit/vl1a+sBAqACDnVCrV1tpaa0PDG+++e6CqSqPRaDSayspKhULBMrB5GEEQDAaD2DdnH4lT/OJigPiR1+udZeG3qanJbDY3NTWJKS6Xi60es+ksccpIq9W63W4xSjkcDukU0yy3t6YrMLnMbdu2iZ96PB5WbTas0Wq1LKqxn1EMD4ODgzt27Eh36nwTAACy6siRIynTp6amrl+//uc//3l0dDQcDks/Elskh8PBUiwWC3vLXhCRxWJhHXbxI+k4I2GEIRYrvvb7/cmjkMbGRvGtw+EgIjaCYa/F8wqCkDABZTAYUhaYkCgtU3whrbYYaZLbZIPBIH6aI+n+Usk4Qe5WMACAOWlrazt8+HCha7HoOJ3OgYGB2e+nEnk8nlmWOrIl878UJqAAAPLBZrP5fL4Mv61tNps7OztzXaXMKQtdAQCAlSLzUcJim+/BqAIAAGQgVAAAgAwsawNAlp08ebLQVYBMPfroo5lkw1oFAGRfVVVVoasA8kZHRzPMiQkoAACQgVABAAAyECoAAEAGQgUAAMhAqACARWftVoPBYNi6ttD1WGoGBgZ8Pl8kEsl6ybgDCgBybu1WQ8OG2Juxy94PhgpZm+Vrenq6v7/f7/fv2rVry5YtWSwZowoAyLmbl7zei8NERMMXESdy7fbt22+99Zbb7b5x40a2ysSoAgDyjo0yxsbG2DZ4Y5fPfzA0mTD4SMjMjF0+/8FQKTv68vkPhiZLau9urFfT2GXvJ2UJ2SZTHDqZhx9ukbhx44bH49m8efNXv/rV8vLyBZaGUAEAhfKZ3/tB6VZDw4b6urVDl2hrwwai4YveSzdnmviS2rsbNkRb+bVbDQ31utqbH1zyXiT28pOyejWNXT7vp7sbE7P5SSdGlAL/oAUiCMLHH3987do1k8kkbjg4PwgVAFAg45OTRKWxd2urNhDR8OhNaZaStevURFTfaKiPpqjLSokmb146f7mssb6xgWj44gdDVHt3imzjRETq+kZD/QoNGBzHYVQBACtFqoa+tEwtm+2mdzI6PFHXNxrKLnov3Uw8ZvmqqanZvXt3TU1NVkrDsjYALAoT42NEVFZSIk2cnBwnInV9XcJ9s2u3Nmyg4Yvei8O0oeHuWkqTjW5e8nq93vOXx3JZ88WmoqLigQceMJvN2YoThFEFAOTBzNrDhgZD2WXvJynyTA75L69rrJdMIhER3bzkPT9+d2N9gyG6PD12eeCzdTvq1TR88dJNoonLYxvq6xs3Xfaevxyf7byfdI31saHH2OXzK2BIsWrVqt27d3/pS18qKsryMAAPIQeALDt58iSeLLskjI6OZvgQckxAAQCADIQKAACQgVABAAAyECoAAEAGQgUAAMjAzbIAkH2Zb9oMSwJCBQBkWTgifKbW8Zyi0BWB2SiE8LqxQIaZMQEFAFkmCEIxP1HoWoCMYn4i86/VIVQAQJatraxcHQ4WuhYgY3U4WLUm08fNIlQAQJbdc89u5fRYcWTFPcl1CSnmJ5XTn+/ZsyfD/AgVAJBlZWVltRvWV43/pUgIF7oukEKREK6a+Etd7caS+IczznZITisEACvTnj17yktW1dy5rMLYYpEp5idr7lxWl5Xs3r0786PwuEAAyJV33z03dO3adHH5hGrNVFFJhFMQcYWu1MokFAm8ip9YHQoWhz6/q3bjnOIEIVQAQE6Nj4+fO3du9NbtIo4URYgTBcNHhIhAVWsq9uzZk/m8kwihAgBAHsflr7XM57kyhLUKAFjCjhw5UugqrAiLLnYBAGQubx1wjCoAAABmg2dAAcASkzDpJL7N+mTUQw89JL7+4he/KL7dv38/Ef3oRz/K4rny9kPND0IFAEBqExMzT7Kqra0V3968eTOn533ggQdyWv48LLoZMQCAzOVtWv/111/nOO6xxx7Lw7kWIYQKAFjC8hMqBEH4q7/6KyL693//d45bid8OwQQUACwxeZvWFwv88MMPfT7f9PT03/7t327fvj0X6wfpylwkaxW4AwoAQMbbb7/9xBNPENGbb76Zh0HMm2++metTzBUmoABgCcvDBNTrr7/e1tb23nvvFRUV7d69+9ChQ7lescD3KgAAsunw4cO5PsVLL7105MgRtkTx3HPPHTlyZLG143mAUAEAS1iup/Jff/31cDj89a9/nb19/PHHlUrl73//+5yedBFCqAAASEs6pGBW5sACoQIAILWEIQWzMgcWCBUAsITldAIqeUjBrMCBBUIFACxhbW1tOSr57bff5nk+YUjBPPbYYxzHvf322zk69SK06G7JAoDlRLILHqdA17TQ+AhFhMjaysp77tldVlaW+YEIFQCQK319fdeGr4dU6jvKypCilOeKsLd2QQkKIVLMT6wOB5XTY7UbNuzZc0+GRyJUAEBOvHHqD+NTodEyTahoVaHrAomKI5NV438pL1m1f//fZJIfA0IAyL533nlnfHL6xup6xInFKVRUcmN1/eeTU319fZnkR6gAgCwbHx8fvn5jdPUXIpyi0HWBtCKc8maZ5trw9fHxcdnMmIACgCx76623bkwIIyV10sR/+e8h2QOrNqrue/zjiqqaVaVzWHGFhaie+KSmrEh2MyU8hBwAsmz01u07qzclJG77ypqiIop+R4F1UDkiIfpvRBAEgcrXKC6cO7tz9301dZvzXemValy1ZvTWJ7LZECoAIMuKOAopShISm59d/9gOJY86tR0AACAASURBVBFFBHbLJvERgY9QWKAwT+GIMB2mng/Hf/ZPVyb1jYWo9Qo1VVRSmcFdaQgVAJBliiKOT1ql4ARhbDz85+vjIV5QKIoqVxcP3ZwMhYXqytKh0YmpkKCtq+BD4QWe2tf39rEfP3P/o0996+9fyCT/0YPfvHTh/PGewQWed1GZvD0S/PRSyo8q67aWVFRLUyKcQlEkHysQKgAgFxJbn4gg8AJNhiJT07xSqShRKSemIlNhoTwUuTMVmZ4KjU1MhKanC1LXZKd/0+k69lLmIWdRWbW68vrgn0LjYwnpxaXl63S7krJn9E0XhAoAyIcIz/MRZSgcmQoLESE8zaumQsJUKDwVFqamI6HQ9OTUKj4sv/SdH/uebNn3ZEuhazFPnEJ5193GK33/JyH9ri/fr1AWz69MhAoAyAeej7DFCT5CHBddnwjzFOIpHKFwhMI8hcN8usN//tPnz5z8FXvNOvs3Pr3y/LcfkubJcB4p+UCSzFx9+b6Hjv34mYOvnGBvr172X7pw/uArJ/R79rIDt+5sbD32S2khrD4JJRR2Uqu6fucN/5/GR4fFlLK166u37Jh3gfheBQDkQyQc5iPEC8RHiI8IIUEIR4OE+IIi4dRrFad/03nm5K+aDz53vGfwhZ+dIklzf7xn8HjP4Nadma6Ez37g1cv+Yz9+Rpry1a+ZiOj6J5eJ6IN33mQprJD7H33qeM9g88Hnzpz81enfdKYroTA4rm7Xg9KEul0PUtIjcjOHUAEA+RDhwyGeQjyFeD4UjoTDNM1TmI9MhyNhPhLmhRAv8GlCxdDHASJ6r8dDRDV1m7/19y+wVrv54HNzrYbsgSyEiG/vvvdB8dSsGnff++AbvzxBRF++7yEiWr+pXvwoZQmFol6vWbNJy16v0ejUG76wkNIwAQUA+RAO8aEITUyHp6emwkXcxOTk9NRUKByamFBMh6b4UDjEC3yaCaiHv/nMmZO/unTh/LNf20ZEzQefY00za6bnZPYD76rXJaTU1G3eurPx0oXzRHTm5K+27mwUv/MhHT1cvexnkSO5hAKq2/Vg8OplIuGuL+9dYFEIFQCQD+EwHw7zqxS8oIgQR+HQtLKIJ4UQDk0riyJccREfIYFPHSpq6jazfjpbsXivxzMzL7Rnbo1g7RbtXA/86tdMly6cZ1NM7LwMW8AQ3/r6Ft32FavK19TovkIcV6Jeu8CiMAEFAPkQDoWKi4s2rivfuK5i3Vp1aWnJ+nXq9dXqstWl69dVrF9XySlUQiSS8tif//T5G59eIaKHv/kMEd1Vr5POCxER6/VnYh4HskNcx14SX7NqeP71n1mGG59e+flPn8+wAnm2Uf/XG3feu/ByMKoAgHz4bHTC7f0Lz26EEgQhQoIgRAT2mhNIIKKJ8al0h4u3G23d2ci+69B88DnXsZfYlJQ4RySrpm7zXA8U56DE2aeaus0v/OzU899+iBVCRPc/+lQmZ88/pSrxa/Pzg8cFAkCWnTx58tPy7QmJNz69cuHcWTY4mEVN3eZ5PANqWX7pOm/qPv/w0UcfnT0PRhUAkA8VVTU7d98n+3ynktKyiqqaBZ4r5TcnGIST+cGoAgCyLOWoAhatTEYVWNYGAAAZCBUAACADoQIAAGRgWRsAsq/u8w8LXQXIJoQKAMiy99577/Dhw4WuBWSqra0Ny9oAALBQCBUAACADoQIAAGQgVABAntz5uPXOR8/y4XF883fJwbI2AOTDncEHVYqQoKSp/9BNfeEt9ZotSiXanyUDowoAyLnJax0lNV+i0hJOpS8pLv/8ku327dupxxYBp9HoDKT4IAfyea4lDqECAHKOKyoVIrcUClLc6aNweOLO7WAwGEmzO0WybDXomZRj5Birh8jIcTNHBJxGo/MHsY9FKyTWIFQAQM6tWv/0neErkak7wudjY5NjH4y0cByX+eG9vTZtNqqRSTm9fofB4PAL7SYiMlj0rhZpLLD1CoIgCNE8giAIWaraYodQAQB5Uf4dTrFq4vNR3/CejXc1VFZWFhVJ2p+AM9pf19m9RERkNDqd1ljvPtZ1N3LW6PZ15LFyVo94VKxzLz0qWbScpHOlt6P1kN5+NGVhKwtCBQDkg0qlIo54UgZV/3Xz5s1qtVo6sLDq7Hp3rMPOkrz2gSZBYL37mEOWji7Wbnu6OixNXbqBQwI7qjna+091VIIU55qFqd1N5tSRZyVBqACAfGCBoUiYWLumXK1WJ9z+5DM4WhNa9+QUIlNTNFZ4unyOVpOPOszi+MA74E9zVIIU55qVqdXhe3FlrEikh1ABAPkjcEXCQu7RN7U6fF0e8nT5mg9oiWILBoIgM5JYEK2ts9l1tDtHpS8NCBUAkA8lG74zcWvoFtdYWlqqUCgSPtV7Xd0BIqJAt2vW9QPtgWZflzUaKfTe+awjZHwuyVlth8guu7CxnCFUAECe8HXnwrWvbty4UaVSJXzU7tbbdRzHcS0D+tnXD7QHmn0ddMimJaJ2v8NnnvNdq7Ofy6ize712XeLCuKndbcms+OUJe2sDQJa1tbXhIeRLSCZ/L4wqAGBZ8lhX6LflcgLPYAGAZcnULgjtha7EsoFRBQAAyECoAAAAGQgVAAAgA6ECAABkIFQAAIAMhAoAAJCBUAEAADIQKgAAQAZCBQAAyECoAIA8Gb59+xW3+9qtW6FQqNB1gblBqACAfBgKBn/9/vvPPPLIib6+j65enZ6eTswRe2hTIWq3RAWcxnSbw6awkKdgIVQAQM4NBYO/6+//3t696xQK2/79rw0MXBoaio8WHqvZxzYqMso2aAGnfJ6siztpQg0CTuNMO2xM94BC6QMMrR6S7Bmeqvy4o1OWGXC22PXu2JZO0tJZHjElGkwEt97eMs/fG0IFAOTW1WDwt/393927t5SIiNQKRevDDx+/eDEgjRaBQR/pt2mJiHp7bdpC1XUW2gPNFN0TiQLdLmo+INYy0O0ii0X8VNybz9/s0kWb6YDTyJnJHduxz01ds40FEgpMXabnqJ3it361xMrvtWnJY42ez+/wRTcHN7U6aD6bQRFCBQDk2mtnzz5lNJZKUqoUim/s2vWL/v5gMMhSrDq7l22UbYx2ro1Gp9Ma7REHnEZpd9nZwnYfSj2fEjtwpjs9czhndAbIaLRajezT6CdxUzgJJ5shiRX+gcRI0dzaJO6uN3PENn3sZbeLHP6ZLV1N7bNt75q2QGmZnq4Og6QSSbo6LE2maL0NvsFAwss5QqgAgNz6vtF44vTpMZ4XUy6MjHSdObOvvHxiYoKltPsdBtZx7rVFM3ntA03RHbNb7HrWX3brB/xEts5o5tTDj+iBguC2dLzoDBBpbb2xzrzeftRDXt+OTkFwWzrMLdQ5k42x6gYOif33+Oka7Ta9d8BPRJ6ujugIiEgcYpiaLIlNu6erw7BDR0RELq/kCElVdeKkkU7ckDV9gZIyA4O+pEjRYU65L4dY77iXc4NQAQC5VV1e/sT27S+fOjXK80R0YWTkxOnT+0pLq6ur1Wp12sMMM5Mreuowc1aPXGc88UDdjuh+qOJAwdxBvsEAa2J1OwziC8nRvliDy+ns3oRm1dRk6ejyUGDQF+2wE0kmo8SmXQwAL+7wi9EsFjMSquqPTUkJfochXYGUpsw4pvaZeJh+RUK3Y37DCoQKAMgtpVK5ZePGpxsa2k6dOjM8/GpPz/6ysk2bNmk0moqKikxKaBcEQWjqSporypBR52r2xzfHs5A230JCZDI1WXyDnm6XPi5SeKPtuLmDvK7uQLQEv8MgiTQpJ5NSSlGgWKv4MtOID33EBiCxQOUfSDm8kYVQAQA5p1KpttbWWhsa3nj33QNVVRqNRqPRVFZWKhSKTA63OgNEpnbB7xC7xHOaRonN1AS6XV65vHrvbAu/pia93WxPiBSWmdVqyZSR1tbrJnMstrU6yK6biXMea7qYl77A+DK12+Kjj1hioJtNdrERkCSBKD5qzAlCBQDkg0ql0tbW/vDee3U63ZziBBFRdPZF52rutGmJtLZDlg5zxl8TOKSPHt8yoJcdVbT7HT5z+t24TU0WSph9ktyFZGqyeF3XxWNMrDCjM0BaW6+0YDM1pZ5JS1Vg3HBELFMX/5FuR7R0nV3vbjcRmdrdZJYmUHzUmBtOEIR5HAYAkE5bW9vhw4cLXYvlL+A06gYOJU6SzcJjTbnUkcnfC6MKAFi6pN87SzcQWLa0tk6HzzyHb2ubfY7OeX5nRTmvowAAFgNTuyC0F7oShaO19Qo2+WxRgtA77zNhVAEAADIQKgAAQAZCBQAAyECoAAAAGQgVAAAgA6ECAABkIFQAAIAMhAoAAJCBUAEAADIQKgAgT4Zv337F7b5261YoFCp0XWBuECoAIB+GgsFfv//+M488cqKv76OrV2d21SYiIqPRWKiKLV1Go9FqtWaSk+O4QGBBz8ZCqACAnBsKBn/X3/+9vXvXKRS2/ftfGxi4NDSUEC0yEQgE8h9UEk5qNBqlza7RaBQ/lT62UJrH4/GI6axxlxaYXL70bboynU6nXq9vb29PmUd8yzK73e6WlpaF/BIQKgAgt64Gg7/t7//u3r2lRESkVihaH374+MWLgXlFi/zTarVExJpg9i9LEd+KLwwGQ3TzU79fp4vuIOR0Os1ms7iv3uznSigwXZlEZLfbW1tbxbdi+Vqt1mq1ut1uQRAcDgeLTCaTiYg8nnlsIRiFUAEAufXa2bNPGY2lkpQqheIbu3b9or8/GAwmZHY6ndIOsviWdbRbWlq8Xi/HcU6nM/lEbEKG5WfNYkJpFOuzswziC3Z4IBBI2X8noubm5u7ubiLy+/3Nzc1iend3d3Nzs16vZ5+KxFhCRC6Xy++f2bKPjQPSSVdgQpkej8dgMEhTpDo6OlhsOHDggM/nE3+EwcHBWU4tQwAAyKojR45I3167efPlN964HQ6LKb7PPvt//+3f/vjHP165coWliH1nkdvttlgsYhtlsVgEQfD7/ck5RUTEetNutzshGyuN5fH7/W63W3wh5hTPlXwW8XCLxcJOIVZbWoh4VMpiE6oqJWZOKDBdmQ6Hw+FwJJfGEqVnFF+LP0KyhL9XStivAgByq7q8/Int218+deq/PfRQlUJxYWTkxOnT+8vKqqur1Wp1QuZAICBOsxgMBiLiOE4QhNk742J+1psWS0guTeyMp+yVi5P7CUwmk9lsbm9v9/l8Yk3EySitVms2mwOBABvxsMJ7e3ul502uqpghEAiwhYTkArVabcoyE4jRguO4AwcOpMyj0+nEEcY8YAIKVrTELdQkjhw5ImY7cuQIcmaeM+GXrFQqt2zc+HRDQ9upU2eGh1/t6dlfVrZp0yaNRlNRUZGQWafT+f1+QRDYpA3r0qYsNhMJpc0uYSSR8KnFYvF4PHq9Xkzp7u5m7TirW3d3NyvB7/d7vV4xm9frzfDuo+QCxVollDnLjyB9GwgExBS/3y+t/JzJjjsAlrHDhw8XugrLUMoJjampqQsff3zof//vP/7xj/39/SMjI2HJlFTyfIvD4TAYDOI0C5uZkcaPZNIV4IQZIVaamCJmkM41UWz+KiU2Z5Uw+yS+ZbND0skisZ4Oh0NaZzYLJA1L0tomFCjET0CRZDZJms6OEn854iyZw+EQJ50S5qykMpmAwqgCVjRppxhySqVSaWtrf3jvvTqdTqPRVFZWKhSK5Gx6vZ51qwcGBojIbrezt83NzWxmxmKxcGmWtWVLm53f7zebzSx/8i25bGqL/UuxySLxrclk8nq9k5OT4luHw8FxXCAQsNls7PXsY6OUBUqHI9IypZ/qdDpWbZ1Ox8JJe3s7S7Hb7eJ0mcvl2rZtm+wvIR1OkLt5CwBgTtra2g4fPlzoWixzTqdzYGAgkyUcIvJ4PC+++GK6pY5M/l4YVQDAkpS8cLLALyQvLTabzefzZfhtbbPZ3NnZuZDT4Q4oWNGOHDmCOaglCjMi6UYJyRb+u8KoAla0tra2QlcBYAlAqAAAABkIFQAAIAOhAgAAZCBUAACADIQKAACQgVABAAAyECoAAEAGQgUAAMhAqIAVDY8qyqfh27dfcbuv3boVCoUKXReYG4QKWNHwVI+8GQoGf/3++8888siJvr6Prl6dw67aAafR6AzMnrKsBJxGjrNmug82x+Xjd4FQAQA5NxQM/q6//3t7965TKGz79782MHBpaGgO0SJ34qJOQggKOI0z7bBx5rGE8U2zxzrzidVDRIllxJUfd3TKMgPOFrveLbSbkkpnecSUaDAR3Hp7S86DBUIFAOTW1WDwt/393927t5SIiNQKRevDDx+/eDGwGKKF9kAzubpZQxvodlHzAXET1UC3iywW8VODwx/diqjZpYs20wGnkTOTuNuRm7pmGwskFJi6TM9ROzlaTZLDLLHye21a8lij5/M7fGZ2hKnVQfajmQ5C5gmhAlY0TEDlwWtnzz5lNJZKUqoUim/s2vWL/v5gMMhSAk5jYv9aTNLZvZQ6xWh0Oq2x/vVMEdESEhKSPmckscI/kBgpmlub9F5J086O2CbuO9rtIoe/XWzXTe3tJkorbYHSMj1dHQZJJZJ0dViaTNF6G3yDgYSXOYNQASsaniybB983Gk+cPj3G82LKhZGRrjNn9pWXT0xMsBStrTfWM9ezHrJVZ9ez7rTfwbaHTk4hr32gSRCEdhORVTdwSOyhtzgDRC2x7G79gD/prUi7Te8d8BORp6tDvy0+UhzQmposiU27p6vDsENHREQur+QIkdeuEyeNxDg3S4GSMgODvqRI0WFOMe0lqXfcy1xBqACA3KouL39i+/aXT50a5XkiujAycuL06X2lpdXV1Wq1OppJ7PObO8g3GCDyGeKnYVKlkCTFF2tSOZ3d6x3wE+mpw8xZPbHOfsLbGaYmS0eXhwKDvmiHnUgyGSU27WIAeHGHv9cWbc1jMSOhVv6ZjbNjUS25QEpTZhxT+0wITb8ioduR62EFQgUA5JZSqdyycePTDQ1tp06dGR5+tadnf1nZpk2bNBpNRUUFy2PUuZr98W3rXEkbaKHdRNQuCILQ1BVbAU54K2FqsvgGPd0ufVyk8EbbcXMHeV3dgWj5fodB0oFPOZmUUooCxTrHl5mGbkfC7yUw6BMDlX8g5fAmixAqACDnVCrV1tpaa0PDG+++e6CqSqPRaDSayspKhUIRzRGbdgl0u9iMjdgKz5IipfcmLu1anQEiU7vgdxh8g4HEt1KmJr3dbE+IFJaZ1WrJlJHW1usmcyzYtDrIrpsJPB5rultc0xcYX6Z2W3z0EUsMdLPJLjYCkiQQxUeNHEGoAIB8UKlU2traH957r06nS4wTRIf00amYlgE96z23u6NJs6RItfsdPnP80ni0SJ2rudOmTXorZWqyUMLsk2Syy9Rk8bqui+23iZ3K6AyQ1tYrPa2ZmlIva6cqMG44Ipapi/9ItyNaus6ud7ebiEztbjJLEyg+auQKh/1pYSXjOPwXyL62tjZ8DX7eAk6jbuCQMNu9VPE81vRLHRnJ5O+FUQUAwCKitXU6fOY5fFvb7HMkDZOyTpnj8gEAYE60tl7BlnFuQejNYV1iMKoAAAAZCBWwomFKHSATCBWwouHBHgCZQKgAAAAZCBUAACADoQJWNExAAWQCoQJWNDxZFiATCBUAACADoQIAAGQgVABAngzfvv2K233t1q1QKFTousDcIFQAQD4MBYO/fv/9Zx555ERf30dXrxZmV+2A05i4mRxkBKECAHJuKBj8XX//9/buXadQ2Pbvf21g4NLQ0CzRooANurjHt7gFkjHunXQb8JlNTKV5jNLNTQNOo9H5A2mhKXc/XfQQKgAgt64Gg7/t7//u3r2lRESkVihaH374+MWLgfTRoncBj9ReKHE3Pb/D96IzQNTrdxgMDr/QbmJPCI/t1ycI/uaB6NYS0jxksOhdcZubRjcOj+YRBEEo4M83PwgVAJBbr509+5TRWCpJqVIovrFr1y/6+4PBIEuR9NQ5qyc6qjAardaELn0KHmv8IEDS7Y8dJKbo7N6ElFn696l2IT1qJ8kTv7W29pRN/o7WQ/rEPfmWOIQKAMit7xuNJ06fHuN5MeXCyEjXmTP7yssnJiZYSrTf7baQQbJbnNe3ozOa3mFOHSycRjPFNiJluwFZdXa9OzoqYAeJKeLG3VbdwKHYwCB+AEAU3QGb48w+SVWifLGNXWWY2t2UpsZLE0IFrGh4smweVJeXP7F9+8unTo3yPBFdGBk5cfr0vtLS6upqtVo9ky/gNCbs0iO2y6YmCyVuiM3EbURKRES+WLDRHmg2dHR5JCkzeajDLI4zvAN+6WczE1BJUSSurjJjElNrdP5qeUCogBUND/bIA6VSuWXjxqcbGtpOnTozPPxqT8/+srJNmzZpNJqKiopYroCzxa5352sOX4wHM6ORJNpt+oQoQqSPbnyttfXOjFFS09o6m11Hu7NW5cJCqACAnFOpVFtra60NDW+8++6BqiqNRqPRaCorKxUKBcvAAkXa/aQ9XR1pZn6aKXFRQO+NpgS6XV5Lk2mmfadAt8sbn2c2nq4Oww5dfFqrg+xphxqJtLZDZI+tjix1AgBAVh05ciRl+tTU1PXr1//85z+Pjo6Gw2HpR5aZNsniFgR2p5AhPjE1Sdfe4k5IiR3ljhZvsFii9yBJBwRxI4wUJzWkK15yqDSPQVqg2yK9pcoQf65FIt3fS4oTBCELAQdgaTpy5AjmoLKura0tK4tARqOzc8ndVboEZfL3wgQUrGh4suySMnNf7JL9KttSpSx0BQAAUuvttcUnmNoFob0wdVnpMKoAAAAZCBUAACADoQIAAGQgVAAAgAyECgAAkIFQAQAAMhAqAABABkIFrGh4sixAJhAqYEXDUz0AMoFQAQB5Mnz79itu97Vbt0KhUKHrAnODUAEA+TAUDP76/fefeeSRE319H129mm5XbZFxRTzeKeA0zrYZrFRhH3iFUAErGiag8mMoGPxdf//39u5dp1DY9u9/bWDg0tCQbLTIsoBTEn6kbwJOY1w7bEz3OELp4wqtnrhgFld4YpnpCmS7dAjtpviiWR4xJRpJBLc+860ysg6hAlY0PFk2D64Gg7/t7//u3r2lRESkVihaH374+MWLgTxHC+2BZorucUSBbhfF9koKdLvIYhE/ovg9U3XRljrgNHIz23gLbuqabc+ihDJTFUjkOWqXbvcq7snRa9OSxxo9mbhDOJlaHUn7OOUNQgUA5NZrZ88+ZTSWSlKqFIpv7Nr1i/7+YDDIUoxGq9UY34sm6k7oV8c2tBYTjEanM22e5OkaSazwD8RFiubWJnGrvLgjtuljL7td5PDPbNNnam+fZbfUtGVKCpxlaz8i6uqwNIk7hEe3FZe8zDuECgDIre8bjSdOnx7jeTHlwshI15kz+8rLJyYmokle345O1l23dLBetNc+0BRLedEZILLq7PqEjnaKPAOHxP570nSNuFu2p6tDv00SKQ5oTU2WFLFCsmeqyxs7QuS168RJI510Y9T0ZUoKDAz64iNFhzlliJNs8Z1qt+88QagAgNyqLi9/Yvv2l0+dGuV5IrowMnLi9Ol9paXV1dVqtTqaSWw1TU0W8g0GiAyxuRndDtZ/98VStAeaDR1dHkqVJ9bgcjq7N7lZNTVZOro8FBj0RfvsMzNR0nZdjAEv7vCL2/Al7bMdt9OqdBvV5DJTFhhfs/bYzNZsKxK6HYUaViBUAEBuKZXKLRs3Pt3Q0Hbq1Jnh4Vd7evaXlW3atEmj0VRUVGT5ZHGbV8/MF8WYmiy+QU+3Sz8TKbzRdtzcQbFYIe6/LQk2KSeoUkpRZqoC04gFvZniBn1ilPIPJI9t8gOhAgByTqVSba2ttTY0vPHuuweqqjQajUajqaysVCgUiVnTz+DrvdFF3UC3yxsbFaTLk46pSW8326WRwjKzVB0/X6S19brJHFsEaXWQfWZFmjxWa5pl7fRlxheo3SaJPh5rbK2lm810seGPJIEoPmrkGUIFAOSDSqXS1tb+8N57dTpdijghTtGYyZ16ioba/Q6fmc0t6d3JA4b4PGk33jY1WUg6+yS5BSl5bcHEyjM6A6S19UrLNlNT6mXtVGVeD6QoMO50uh3RomM/m6ndTYk/rDRq5BsnCEJBTgywGHAc/gtkX1tb21wfrmU0OjvTRIhlLOA06gYOpZgnS8ljTb/UsSCZ/L0wqgAAKAytrdPhM2f6bW2zz9FZsGiqLNB5ARYFPFl2kejttRW6CgWhtfUKGf7kgtCb27rMCqMKWNHwYA+ATCBUAACADIQKAACQgVABKxomoAAygVABKxqeLAuQCYQKAACQgVABAAAyECoAAEAGQgUAAMhAqACAPBm7MfwH59Fbw9dCoVCh6wJzg1ABAPlwe3jI9/pvHvhWy7//7NWrlz/Kx67aAacx5cNlYe4QKgAg524PD1042XXvt75TvG79g9YffPjL14YuX5olWsw08XNp7jPJGdt5e2Y77oT9umc255Y8xVyaxyh9unnAaTQ6fyAtNP3jz5c0hAoAyK3b14Yu/P539/5tC1daRkTKcvXXfvDf/vN/Hh/6KJAuWvTO61HbGR0lbpPnd/hedAaIev0Og8HhF9pN7KngrubYPnr+5oHodhLSPGSw6OO37bb1xvZMjRW+/J6njlABKxqeLJsHff/f//qrpm+wOMEUr63+L489+cG//SIYDMbSPFZJZ18cHzhb7LHNR8VndXusaXrt0aPEcYHOnmajOiJKvfnoUTtJHvSttbWnbPJ3tB7Sy2y2t+zgIeSwsvzkJz+Rvi0tLZWm/OhHP8p7jZa/e771nbM/+5/3P/N3ynI1Sxn5T9//Pfn6mv0HJiYmWIrTaCa3IMT2+DG+GH1h63S4Wqiz16b1WLkuT7vJRJ6uDsshIX2v3aqz691CLxsjtCR97LXrODsRERkc/vaED32G5tZMxgOmdncXZ/UI7YXZvbQAMKqAleXmZ3+xJwAAIABJREFUrApdu+VpdVX11gP/T8//+Eno5ggRjfyn783/9eoq477q6mq1Oho84jYZTckU3W3a09WRZl/tKJ9h1qJmJqCa46eRpGIDk/RrDqbW6PzVCoFRBawsr7zyivj69ddf5zjuscceK2B9VgKlUrlx8xah+Vunf/KP/+WxJ//vyddLjH+zadMmjUZTUVGRcTGmJou5y9NEHZamxMHAvGi36b1dfiLpKELvdXUHbDat1tYr2FIOSmYOt3U2G492N2ejKksARhWwQgmC8I//+I/PPvss9tbOA5VKVVu/9UvfsZ7v+cOa/Qc0Go1Go6msrFQoFCxDM6Wf/PcO+ImIdeTNZp/c8EPvdbHF6EC3a7a1Ck9Xh2FHwgRSq4PsaYcaibS2Q2SfdTlkGUGogBXq97//PRENDQ2xF5BrKpWq9ovaeyw/0Ol0CXGCiNgm03F3rTJa2yFLh5lNBWkPNBsMzQdkFhPa3Xq2Dt4yoDckfxxbJOfM5O61aYmMOrZybvUQaW29/maXLrYqTrGTSfNImNrdlvn+PpYYDl0qWJnuueeeQ4cOPf7447t27Xrvvfc4jit0jZaPtra2nNxa5rFyL+7wL78bUQstk78XRhWwEr3++uvhcPjrX/86ESmVSgwslgRPV4flkBgnZm6uXb7fe1tEECpgJXrppZeOHDnCRhLPPffckSNHMLxe/Ezt7Ctw4rsEGG7kEEIFrDjSIQURPf744xhYAMwOoQJWHOmQgsHAAmB2WNaGleX1119va2sT17E5LvpfgK1y4zsWWXHy5MlCVwHm5tFHH509A76CBytL8pCCYQOLr3/967gVKiuqqqoKXQXI1OjoqGweTEDBCvL222/zPC+uUkg99thjHMe9/fbb+a8VwOI3hwmo8fHxc+fOjd66XcRxCoSYeeEjFBEiaysr77lnd1lZmfwBSwSujfxYKtfPyZMnMapYQkZHR7M2AdXX13dt+HpIpb6zelNIUcpzRUQYp8+VoBAixfwEPxl84w9/rN2wYc+eewpdpSzAtZEvy/P6gSUho1Dxxqk/jE+FRsvrQ0Wrcl2hZY3jOQWvLJ9UlherJunGX/7whz/u3/83ha7VguDayKNleP3AUiE/WfDOO++MT07fWI22IJtCRSU3Vtd/PjnV19dX6LrMH66NQlke188s1m41GAyGrWsLXY+laWBgwOfzRSKRLJYpM6oYHx8fvn5jtLw+wilmzwlzFeGUN8s03PDH4+Pji3neOR1cG4W1tK6ftVsNDRtib8Yuez8YKmRtlrvp6en+/n6/379r164tW7ZkpUyZUHHu3LmQSp3QZ/yX/x6SLbdqo+q+xz+uqKpZVbrYL+ICmi4qCRWXnzt37oEHHih0XeYM10bBLaHr5+Ylr3d0q6FhAw1f9F7CFlL5cPv27bfeemtgYGD37t01NTULLE0mVIzeun1n9aaExG1fWVNURNHbz9n9UxyREP03IgiCQOVrFBfOnd25+76aus0LrOLyNq5aM3rrk0LXYj5wbSwGS/X6YaOMsbExtg3e2OXzHwxNJgw+EjIzY5fPfzBUyo6+fP6DocmS2rsb69U0dtn7SVlCtskUh07m4YdbVG7cuOHxeDZv3vzVr361vLx83uXIhIoijkKKkoTE5mfXP7ZDSUQRgd29R3xE4CMUFijMUzgiTIep58Pxn/3TlUl947xrtkJMFZVULs3bhXBtLAZL9/ohIqLP/N4PSrcaGjbU160dukRbGzYQG3bMNPEltXc3bIi28mu3GhrqdbU3P7jkvUjs5Sdl9Woau3zeT3c3Jmbzk06MKAX+QQtKEISPP/742rVrJpNpLtsOxpEJFYoijk+aieYEYWw8/Ofr4yFeUCiKKlcXD92cDIWF6srSodGJqZCgravgQ+H5VUjk63v72I+fuf/Rp7719y8ssKhMTrR1Z2PrsV9mpcDJ2yPBTy+l/KiybmtJRbU0JcIpFEVL8v/60ro2bnx65flvP5TFv3LurJDrh4hofHKSqDT2bm3VBiIaHo2bnipZu05NRPWNhvpoirqslGjy5qXzl8sa6xsbiIYvfjBEtXenyDZORKSubzTUr+iAwXFczkcV7EQJ7yOCwAs0GYpMTfNKpaJEpZyYikyFhfJQ5M5UZHoqNDYxEZqennedMvfznz5/5uSvDr5yQr9nbx5Ol6FVqyuvD/4pND6WkF5cWr5Otysp+5L9f060mK+NDJ3+Tafr2Et56JGIZC/alXT9ZCpVQ19appbNdtM7GR2eqOsbDWUrcZmkpqYmK2sV8/lmbYTn+QiFwpGpsDAdCk/zwlRImJoOT4WFqenIdGh6cirMh+WXN5crTqG8625jcvpdX75foSzOf33yacldG/uebDneM5i3OJGJFXv9TIyPEVFZSdys5uTkOBGp6+sS7ptdu5UtkV8cpg0Nd9dSmmx085LX6/Wev5wYeFeAioqKBx54wGw2LzxO0PweF8jzETYBzUeI46Jz0GGeQjyFIxSOUJincJhPdzjrVbHXrDfHJgekeY73DMpW4/RvOlk5x378DBEdfOUEm5T48n0PHfvxMy/87JR0wuHowW9eunCeFcumL1ghW3c2mp7+u4S6LXyaorp+5w3/n8ZHh8WUsrXrq7fsWEiZS8IiuTaSi3r4m9G/OLsSiKj54HP7nmyRzmU9+7VtRLR1Z2PKDKy0rTsbv/MPP2FVEsci0komJG7d2UhEYoFEJL1o0/0sy+/6mVl72NBgKLvsTbUSPznkv7yusV4yiUREdPOS9/z43Y31DYbo8vTY5YHP1u2oV9PwxUs3iSYuj22or2/cdNl7/nJ8tvN+0jXWx4YeY5fPr5ghxapVq3bv3v2lL32pqChrj9mZT6iIhMN8pJgXWHMghAQhHG0IxBcUCaeej2btO/tPeOPTK2/88oT434z9txH/J8va92TL0McBcSzv63ubiK5e9osNREoJKxNHD35T/OjGp1eyEieIiDiubteD/j/O1KRu14O0Ah5ZukiujeSiWPqlC+df+NmpmrrNz35tm+vYS/uebEk+9jv/8JOaus1HD37Tdeyl9ZuijdaZk7863jPIws9rL//oeM/g0YPfPHPyVywCPf/th1iEYNNZtVu0YskJZzzeMyi9aNP+AMvu+rl5yeuNX38R30s+mhz6wJviCxfJyUMz76UfJh2dsrjlr6GhIetlzm8CKhziKcRTiOdD4Ug4TNM8hfnIdDgS5iNhXgjxAp+mORj6OEBE7/V4iKimbvO3/v6FD955k2Idrqw43jM4S8ez/+wpIhJHEtKo8NrLPyKi7/zDT7JSDfV6zZpN0f0b12h06g1fyEqxi9wiuTaSi2LpW3c2sjt0WWc/JZbhq18zEdH1Ty6zxPsffYqIardoxY9ELA59+b6HiIiFFnb2zM+Y0sq8fmDRms+oIhziQxGamA5PT02Fi7iJycnpqalQODQxoZgOTfGhcIgX+DSTDA9/85kzJ3916cJ5NthvPvgc+38ldt8W6K563fwOFLurWbzZv27Xg8Grl4mEu768iFbdc2qRXBvJRd1974NzKkFs9Gc/+/AnV9gLcUqTiK5e9s+1wimtwOsHFq35jCrCYT4c5lcp+GJFRFHEh0PTyiK+WCGEQ9PKooiyuIiPkMCnbg5q6jazXj/rpr3X42E9NbH7VihbdzayKv38p89nq8xV5WtqdF+p2dZYol4pz7JZJNdGclFzLYGdlFUgEwdfOcHOeLxnMFv3467A6wcWrXmFilCouLho47ryjesq1q1Vl5aWrF+nXl+tLltdun5dxfp1lZxCJaR5UtXPf/r8jU+vEBGb5L2rXse6e+J/5gwno5lZmhI2OBBLE1+wiQLPv/6zWB/xEDZNcebkr1gNs2Kj/q837rw3W6Utfovk2kguaq4/iOvYS0SUyViEnUK8om58emX23sac4t9Ku35g0ZrPBNRnoxNu7194drOLIAgREgQhIrDXnEACEU2MT6U7XLxXZOvORtY6Nx98znXspYT7TzKx78mW93o8rmMvuY69dPCVEwmfpixWv2cvu1dKTGfBQ3rI899+KMPbbGQpVYnfZ17eFs+1kVBU5uGfnYuI2HK0OMWUTk3dZna7nXggG8qkI71oZS+zlXb9wKIlswveyZMnPy3fnpB449MrF86dlf2/V1O3eR7P+ZHe1bpC1H3+oewWVIvQ8rs2WFu/5K69RXj9nDx5stBVgLnJ2i54UhVVNTt33yf7DJ+S0rKKqoV+9SP5tnrRkvsvvRLg2gAiCkeEz9S65Oe+wCKkEMLrxgKy2eYTKlaVluXumaAJS4JsfTJH54KsW9LXBq60bBEEoZif4JXzf+IQ5E0xPzHr1FJU1r7LBwDArK2sXB0OFroWkJHV4WDVGvnHzSJUAECW3XPPbuX0WHFkhT7JdQkp5ieV05/v2bNHNidCBQBkWVlZWe2G9VXjfykSFvrAecidIiFcNfGXutqNJSXyN9rJr1XUff5hNmoFyxCuDUhnz549f/jDH+nO5Ztlmuki3PK76BTzk1UTf1GXlezevTuT/DKh4r333jt8+HA2KgZptbW1LbabHTOBa2ORWLTXz/79f/Puu+e4ax9PF5dPqNZMFZVEOMUK2WBjsRKKBF7FT6wOBYtDn99VuzHDOEHzuwMKACAT99yze3x8/Ny5c6O3PqnkaAlv2Ldc8BEhIlDVmoo9ex7KZN5JhFABADlUVlb2wAMPFLoW2cFxMt9ZXsawrA0AkJGVPOM6z1Bx5+PWOx89y4fHV2yMhXRwbcBydeTIkUJXoWDmEyruDD6o4r3Fig+m/kN3a+RSOM1ONbAC4dqA5W3FRos5r1VMXusoqflSZMLPcdqS4s9GLtkE3b+uXbuWW/Bujkajsbe3d06HBAKBlpaWuR4FOTLXa2Mef/FZ4GKAXEiIDW1tbSnTl705jyq4olIhckuhIMWdPgqHJ+7cDgaDEckOBIFAwGg0ZrWSUZkUy8Ww106nM6FWRqORiyfmgQWSvTZkzenKWfj1gIsB5uTNN98sdBUKZs6jilXrnw4O/PPqcoH7fOzzybEPRlq++sU83QCXSYfR7/eLXUuDweByuQ4cOKDVzuxlxj5CDzQXFn5tzOkvsvDrARcDyJKOHlifY6WNJ5h5LWuXf4f7/9m7++imrjtv9L9j2cI2lh1sCLhYFzxIpHaV9oEEyKMzAy2lyZLcJJ42o3RNJtdpmyX1eVZTac1Tr/Y+dQfccW+SxZoZaa2uu2IvbhLnZtKO+hLTYOmukEIS0OkADU98ESJFIk7bFOFQG2Qn2NiWz/1jS0dH77ItWbb1/fzBkrb22WcLyfu3X47OVqyZ/HjMO7Jn06da6urqyspi5XR0dAiCwDpoPM9bLBb2/yv1AeXDDqk353ZHdjpzu90cxwUCKW6KKy+BHaXVZtndrKur6/Dhwwt5j7AwGb8bDoeDfXDSR8m+HtIXQEqXd/ml70YCljn3LwPh+wCwUAsJFUqlkjgKU3lI+d+2bNmiUqnkk9H9/f16vV4URavVKghCe3t7uitheJ53uVyiKIqiaDAYiCgQCBiNRlEU5eOAZFqtlh3o92fZ754Vm66tgbzL/N2w2Wzs49bpdEQkfT1cLldPT4+8HEEQ+vv72UtGozHDGXP/MhC+DzB/h2TkKcWsUzEsJFSwP/4ycXLdHTUqlaq8PO0sll6vZ3+c6chfFQRBq9XmcoVl1mLlOjs7E5ohKJys3w2Wobe3l2SfY/KAQK/Xs+6C1IdId8Z5fRkI3weABVn4r7VFrkzM64+99Xq9yWSyWCysHckXjUZjMpkGBwfzWCZklu67wfoBLFoU61cX+D7AvMgHEOzypxIcUtDCRhWVG5+YvBm8ye2sqqpSKFLsiSgIQoZE+V9pwlSA1WoloqxXoQiCwLqZOf7BW61Wm82WS05YpMzfDfbJiqKo1+szDBTk3G63NMJIab5fBsL3AWD+Fvhr7fDmc7ONz2/atEmpVCa8pNFozGZz8nWHdrudLT/6fD6W0t/fbzQaE5Yue3t7bTZb5mjhcrm0Wq28KIlWq2WL6smHzPc9wsJk+G7YbDb2cZtMpszLUexD5DjOaDRmvjYpw5eB8H0AyBcxo0OHDmXOAIu3Qv+TC1ptdmUE5GKFfn9WIiI6ePBgsWtRHMv3doFckhynLGBVwvcBloPSXKig5XwTchE3mythyZNO+D5A0eHOsgAAkEXJDikIoQIAIHclGy0QKgAAciXdWbbUIFQAAOSkZIcUhFABAJCjkh1SEEIFAABkhVABAABZIFQAAEAWCBUAAJDFAkPFyPj4My7XtZs3Z2Zm8lshWOkmro+84Th8c+QavhsAq8ZCQkUwFPrFu+8++cADR86cef/q1enp6QWfnucdK/k+PgEHz3GWnLZU47iV/VZzND4S9B795b7HOn738vNXh99fzHdjvuQb8QJAfs07VARDoVeHhr6xd+96hcJ64MCLPt+VYHApWoSAQxZX5E8CDj6uHeZjN5SLb53dltgrFndclIorPLHMdAUGHB02nUvsNcQXzfJIKZFIIrp0to5VHizGR4IXjw3c99gTFevv/Lzlqd//7MXg8JXFfDcyt/65BAb57QXZje6lpyyDtN23/Lb58jzydFYfadPv5ANh1SvZ20DNL1RcDYV+NTT09b17q4iISKVQdN5//3OXLgWWIFpo2kzkHGRtbWDQSaY2jfTYbJZeIiK93c9um+s3ObWRljrg4DkjuaI31HXRQIrdlyQJZaYqkMh92Eb2TmmrTnO0cI9VQ25L5GR+u9fIjjB02sl2OIcRyArdxXf8WvDia6/e9/cdXFU1EZXXqL7w1Hffe+G54PuBAn03Mu9jwUg3M/f7/WyfVL/fzxKJyOFwOJ1O6TbL0o4X8jx6vd7pdMrvYuvxeFiBUuFsSy4oBSvl7zHv5hcqXjx9+lGer5Kl1CsUj+zY8crQUCgUYik8b7HwrDsdcPCyfnWkr56uv887AvIcydM1sljh98VFClNnu06QxQrpiO266MNBJ9n9vVK7bujt1ad/m2nLlBVI7oE+fbQSSQb6zO2GSKX13suBhIer0ZmfvnRv+yMsTjAV6xo++9BXL/z8Fem7QbIOu9vtloYF0uhB6uOzpx0dHWxjopTddpYnEAiwQ5I36Jbz+/06nS4h0Waz9ff3S0/T7dTb1dV1+PDhjO8eSkLJDilovqHimzx/5MSJiXBYSrk4Ojpw6tT+mprJyclIkuBt7RdFl7nP2EHsQU+k2ddYPdFevS7WwQ44eCO5RI9VQxatr0vqvydN12i26wSfn4jcA3267bJI0aYxtJtTxAr3QJ++lbUfTiF6hESwaaV2S2uTDTLSlykrMHDZGx8p+owpQ5xU6biHq9Dux544/fILsx9PSCmj73l/e+xoNb9f+m7wPO9yRUZfBoMhuRCbzcZeZc16f38/67ln6LZrtVpWpt+f4v9WvpteZ2dnwquZt2KVsKombO4LJahkhxQ031DRUFPzlbvuevr48bFwmIgujo4eOXFif1VVQ0ODSqWKZGItqLZVLz2QjpcGDcY+Yh1swabV+rrESH/fG21wOa1NSG5WDe3mvgE3BS57I3322EyUvF2XYkBPq99jjbQE0SY+RppWEkXRb5dVMqnMlAXG16w3FgPTr0hoW1fxsGJtfcO2tr89+W/PztwYJaLR97xvvvT8Gn5/3Hcj2uxmwFYI0nXwk+n1+gxlyiegOjo60mVjyw8ZFj86OzvZ/BWUuJKNFvMLFeXl5Vs3bXq8paX7+PFTIyPPnzx5oLq6qalJrVbX1tZmPZzXOk3++KZZb3dJs/kU33yLvUkNgKHd7L3sHnTqYpFCiLTjxj6KxgpWiN+ulwWblBNUKaUoM1WBacgDIyvusleKUn5f8tiGka+Rdnd3d3d3y7+Rhw4d4tLLmjOnt71o5eXlm7Zs3W567MSzPwoKb7/10guV/Bdz/24w7IMvRLU1Go0gJK5PCYLAFiE8Hk/KQYn8cJPJNDg4mN9awYpTsreBmvcVUEqlcltjo6Wl5fWzZ9vq69VqtVqtrqurUygU2Q+OTtkEBp3SX63W6nGRkc3b6IQsC7+Gdp3NaJNHCnNsqTp+vkhj9bjIGF0o6bSTLbYiTW6LJc2ydvoy4wvUbJdFH7cluno+yGa62PBHlkAUHzUSyPewPXjw4MGDBxMCgJhe5pyZ/jfzTalUNjZv+/QTlvMn37jjQFvK74Z8Gkdqu6UmmK1JiKKo1+tZI57cvieQmvvM7bjb7dbrE9en7HZ7hqFGAqvVarPZcswMq1LJDiloYb+rUCqVmsbG79x3n1arnUecIOrSRWZyOnw6+V+todels2l5R6DXb/caU698R7O2m0k++yS7BCl5bcHAyuMdAdJYPfKyjdSeelk7VZkfBVIUGHc6bWukaK1N5+o1EBl6XWSUJ1B81Fi1lEpl419pdpufSvnd6O/vNxqN0rK23W5nj6VLj2w2G0sxmUwajUaj0ZjN5nTL2ozL5dJqtfJC5ORrFeyKKa1WyxKJyGq1mkymyJSnVmsymdhR8jwJ51rcfw+sbCU7pCCK78+m7LFmzlDK/HZ97BLZrFzm+Om1mIT/ZDaqSH68MFk/4gXDd2OZwAexZHJpM1er8qLGqZVNY+2381rO4kqxqpKEM3rt/t5cxhQJE0oLrh6zai7vS+7j+/3+XK5fAoDFQ6hYDI3VI+b44ytRzP57sUJYNbOr4tKuuwCAHO4sCwAAWSBUAABAFggVq9yqmYACgCJCqFjlSvryPoB8WzXXicwXQgUAQK5KdpiOUAEAkJOSHVIQQgUAQI5KdkhBCBUAALkr2WiBUAEAkKuSvU5kgaFiZHz8GZfr2s2bMzMz+a0QrHT4bsBqVbJDClpYqAiGQr94990nH3jgyJkz71+9mp+dkwMOPuWtZInSpcMyVJDvRjx8H6BYSnZIQQsIFcFQ6NWhoW/s3bteobAeOPCiz3clGCxEi7B03JbYDc8DDp7jHQGSNgFPuh96wMHHEvjUeUpUHr8b84sHqfoZ8Z+gxZ2qTNlm7wmfX+xTdsQXhE8aStP8QsXVUOhXQ0Nf37u3ioiIVApF5/33P3fpUmBFRwtDr7TVt/uwjez9Vk3CfnyyXVIDg04ymym6U4WUzW9yyrZOWj6W7PK+/H43PKk3pp2PLDsqUsAR25VRFCM7pkRfi33Kkf3g/XZ9tMDFVw1gxZlfqHjx9OlHeb5KllKvUDyyY8crQ0OhUIil8LzFwrOOXKTTFmtBY724aJqUorUJiXmy994cvFSQ28Lxjv838VhZtzGSwvMOhyWuUkRk6LR7exyBgKOnz9yVsSEIDDrJ1NmevP+qZrsuS2WLY8lmV3P7bjgCxD4V9v8fcPAWN6X40GU5U3TmBy1xXyNHh43tcTuv/r7UKyAitmuV1AFI+ykDlKr5hYpv8vyREycmwmEp5eLo6MCpU/traiYnJyNJgre1XxRd5j5jB7EHPZG/YIvWpnOxLlpkP20pRdpt26L1dUn99I4sf/rWrujGpO6BPnOXz5B4rCbSJxRFaeAg2HztSd1MjbVLZ+vocEpb1lFke+2ERiow6CRTmyZ5wz1yD/Sl2w21NOTy3dAJPj9RYNCpM9OAm4j8PmrVpv/Qk78eRNInGPtqWfsjXf64/r78E+RSDPi80e17IzTbdZG909N/ygClan6hoqGm5it33fX08eNj4TARXRwdPXLixP6qqoaGBpVKFcnE/gK1rXrpQfRwrz6yF6mmzaTvG3DLUiRe6jNK44zIn256hsgm1u6BPnO7IcWxUrfU2EfeywEiSjpjpKROO5Ep9pJ8+kJqgSJtiGy3VKk96mn1l/bERC7fjXaz93KA/D5de2erd8BNgcte3XZN+g89+etBJPsEZV+tFLJNQKWV/CkDlLz5hYry8vKtmzY93tLSffz4qZGR50+ePFBd3dTUpFara2tr81Oj+f2Fs1jBIkWKY2Oz0fJu6UIFBp1CJDYY+0hwDgYiZ/Tb9VmjWpEs2QRULt8NbSv5/O4Bb6tW02byDrj9Ph3bJz3Nhy4UssKJ00uBy159qzblpwxQ8uZ9BZRSqdzW2GhpaXn97Nm2+nq1Wq1Wq+vq6hQKRdZjdUJkEigw6BTM7QbZn2tg0CnE58mRodPuNRq99k5DymOjkwxS+YsQGHQKsb20XbIep8bqcZEx1SxH0S3l5X1ZvxuaNhP19HhNbRrStJloYIDYnF26D30enfr5h+pOO9lik11ui9ZGpjZNhk8ZoIRvA7WQ31UolUpNY+N37rtPq9XmHieIqNdv9xrZNENkUaDXpWP9tw6fTh+fJ9fLEjVtpshUV4pjuyLFx8rPVdxMN+8IsHkJ2XyIod0sOD+S6mdgJy/1CymzfDc020lgkzuk2U593lYWyNN96NLXI3bVQ0oaa5e5z5j1+xL7TC1uIo3V4zc5oylGcokeqyblp4xYAZLS/RWemNGhQ4cyZyg+lzl++mLlKeh/ctaPeMGW9LvhMlOsqw9xVsAf6Wpx8ODBYlehaFbQPaDcFi4B7wiwS59Kej15FYt95EZyzWdlGqAQSndIsaJuF2joTYxzHquGDL3zuroFVhLZR44PGZaFko0WKyhUAAAUWcneBgqhAgAgJyU7pCCi8swv33PPPceOHVuaqpSse+65p9hVAIDsSnZIQVlDBRHV19cvQT1K2djYWLGrAACQCSagVrmS/cUQAOQRQsUqV8qzqwCQLwgVAACQBUIFAABkUfBQsW6bXq/Xb1tX6PMsIz6fz+v1zs3NFbsiRJiAAoB8mHeoYE1/xN2NhajTSjc9Pf3OO+8cPXr0gw8+KHZdinB538T1kTcch2+OXJuZmVniUwMUWsleJzLvUHHjiiBcGiEiGrkkXAjmv0arxfj4+FtvveVyua5fv17suuSZKIpvv/12ypfGR4Leo7/c91jH715+/urw+2l31Q44+CW7Ce9SnqtIRFEsdhVKRckO07PNeS4XAAAgAElEQVT/riKLddv0LRtpYmKCbXU2MXz+QnAqmpw6MzMxfP5CsIodPXz+QnCqsvHunc0qmhgWPqxOyDaV4tCpxdZ8SVy/ft3tdm/ZsuWee+6pqakpdnVywv4YUv5JiKL42muvsZHKQw89lPDq+Ejw4rGB+x57gquq/rzlqRP/+n/So/97Y/M2pVKZy3l53tGfj50EcymH5ziBiMjsEnt7OI7s0T0MAw6+g3aS7SfxNz3X25f1Jof33nvvwYMHH3zwQY7jkl/N8IHCvJTskILyt1bxFz8bbKiaN68jWretZSPRyCUhOgIhIqpsvLtl48TweYGlqpq1jZU3rkgP121uVtHE8Hk/JWerbLybRRRBEARBWClxghFF8YMPPhgcHBwfHy92XRbljTfe2LNnT1dX1/e///3f/e53Ca+OXwtefO3V+/6+g6uqJqLyGtUXnvruey88F3w/kHZsEc+Tp8Y4l3I8frYdd6+BiPRmXfw27pEd2SN5onemXMaeffbZnp6ez33ucz//+c8xwiicUg63eQoVt6bkjfe6+o1ENDJ2Q56lct16FZGqeader2cDBFV1FRHduHJ+eELVvLNlI41cuhCkNNkomnh3Y2V+6rxUOI7bunVrW1tb3vaUXXJvvPHG7t27//Ef/7Gzs3NoaOjv/u7vknuvZ3760r3tj7A4wVSsa/jsQ1+98PNXQqFQJEna6jy6VRHPOxyWyF5D0jQRH9tP0G3hLG7pqOjeRfKjkkXKSTpXeq2dXbr5bb64zBw4cODs2bP/+q//evjwYQSMgirZaLHUF8tKIwNBEIQrLJZUVauyZJsKXpCGJ6rmnSvogqoNGzYYDIZ9+/atlNmnBLkECWb3Y0+cfvmF2Y8npJTR97y/PXa0mt8/OTnJUixam84V7bCzJMHma0+8x3iXuW+AtdvugT5z+4DW18XuRO43RXr/qY5KkOJcGRh6XWRcjhvezgcCxhIo2dtAFSRUTN6aIKLqyrju/9TULYpOUMmt29aykUYuCZdGaGPL3Y2UJhvduCIIgnB+eIJWhtra2n379hmNxg0bNhS7LvMmiuKvf/3re+6553vf+15XV1fmIMGsrW/Y1va3J//t2Zkbo0Q0+p73zZeeX8Pvb2hoYMtYROTVy/YiZZJTiAztkVjhHvDaOw1e6jNK4wO2h3aqoxKkOFdGhk67t2c1rH4fOHDgzJkzPT09zzzzzL333vvrX/8aASNfSnZIQQu8WJatL29sSXex7FTQPzwRmS+KLW7fuCKcH56gjS2xS23vaLxb37KRRi5duUE3/syOabqVlK2ysvHuyJOdzaqJ4fNXbqQ87zKxZs2aXbt2Pfzww1u3bi12XYiIOI6Tf8UPHTqUuJ2gjDxnMBg8f/78ww8/XFZWlpwz4Szl5eWbtmzdbnrsxLM/Cgpvv/XSC5X8F5uamtRq9bxn3gyddu+Am9wDXlObhuI3xC3YHkcaa7/JeXiwQKUXVsJHU1ZW9vDDD58/f/78+fM//elPpWy5f/TImVLJDimIiMvc4zh27BjuLFtoY2NjX/7yl4tdixj5BTNvvPHG//yf/3NqauqHP/zhI488wskiRHd3d/IFIdPT08H3A95f/qzqv35+/fr1TU1NdXV1CoWCvWrh+Fa/x6qhgIPXOk1+j7VDdrWS/MqlgIM/7NN5Wzs9Vo2F48gVFyIyX+PEXj2cdK64/AEH30GsEFlpbgtn7JOudpLlWc4SPojkjwxXQOURx2VpM1cr3NgDMpnv9LdSqWz8K81u81NarVatVsvjBBH1unQ2LcdxXIdPl3n9QNNm8vYR2zS912/3GqP9upx/IZH5XLzWJgg2beLCuKHXZc6t+OUo94UlgPnCqKL4lvOoQi6hu/qjH/2olC8zXz66u7t5nk83+CP8riKvMKoAyCJhvbTY1WHclsT55NX+y+xUcr/6AGBhFv1rbVh1MnQ/OY576KGHHnzwwVOnTp08eXIJK5WOoVcUe4tdiaL73e9+lyFCYDwBi4dRBcwbx3F79+4tdi0gBiMJKLTsowrs/AwAwJTs+lyWUDE7J/5FpQ1ziszZYMEU4uz6idKbXAdYmUp2Ni/LBJQoihXhyaWpSmmqCE+W5PUUALCSZAkV6+rq1s6GMueBxVg7G6q/Y6XeRhAASkSWULF7967y6YmKuZV00+8VpCI8VT798Z49e4pdEQDICSagUquurm7ceGf9rT+VibNLU6HSUSbO1k/+aXPjpsrKFXZbdYCSVbK3gcp+seyePXtqKtds+GRYibFF/lSEpzZ8Mqyqrty1a1ex6wIAkEVOP8E7cOCLZ8+e4659MF1RM6m843ZZ5RynIMKl3PMllolhZXhy7UyoYubjTzVuQpwAgBUh119r796969atW+fOnRu7+WEdR4oyxImFCM+JcyLV31G7Z8+XVuu808T1kTOvvHTv1x5fW99QUVFR7OoAQB7M48Ye1dXV+/btK1xVYBUYHwlefO3VfY91vNV/RPvgVxu3NiuVysKecoXcKhxgRcONPSBvxkeCF48N3PfYExXr7/y85anf/+zF4PCV6enpdPmlzbQp4OBzvstfLjl52e0D2X3G+bhnsY235fcXlOfh5fcdDDh43vGUvNCSvTEhlCqECsiP8WvBi6+9et/fd3BV1URUXqP6wlPffe+F54LvB9JFC8+ChgI5HSVtnOePbIPq8dv1ertf7DVQdLMjMbpht2+QNfnyPKQ36yIbeUdYPdGduqOFYyQDpQOhAvLjzE9furf9ERYnmIp1DZ996KsXfv5KKCT9ijN2z3CLOzY+cHSwjYZk3X5yW9L02iNHSeMCrU3IUC2/T9BtT2jRD9vI3i818xprb8omv7WzS2c77E7xCkDpQaiA/Nj92BOnX35h9uMJKWX0Pe9vjx2t5vdPTkbuDePgjeRKsUe2tT/aVXeZ+wbcRETugT5zV4Zeu0Vr07mi3fzkl6OBhzN67Z2Ju3F79aa2XMYDhl4XGS0IFgAIFZAva+sbtrX97cl/e3bmxigRjb7nffOl59fw+xsaGlQqFcvjpOR2O56hncUK90CfuT1TVq8+Y1GxCShT/DSSXHRgkn7NwdAZmb8CYEr2zrIIFZAf5eXlm7Zs3W567MSzPwoKb7/10guV/BebmprUanVtbe43uWKxImukyJlmu07w+ePTdIJzMEBEGqsnzaAkdri13+Q8PJiPmsCqgBt7ACyWUqlsbN726Scs50++cceBNrVarVar6+rqFIrITexNlH7yP9qgGzrtXmOqaaN40eaeAoPOTGsV7oE+fas2Pq3TTra0Q41EGmsX2TIuhwCUAGyYCvmkVCob/0pTbX5qamqqpqamtrZWihNEZO2389rIhm1ml+ze6xprl5kzcn16u99jbTPpnZRtMaHXpeO0nI1IbzanWauwRc9j1RDxWptApOV8LrHXYPX4iY9mIL3dz04mzyMry9DrMvf1zPu/AmA14UTslgAL0t3dXZB5W7eF62n140LUnBXqg4BUDh06VJpzUJiAguUl/tKn2MW1+N0bLAcle2dZTEDB8mLoFQ1xz+ImgwCgKDCqAACALBAqAAAgC4QKAADIAqECAACyQKgAAIAsECoAACALhAoAAMgCoQIAIFcl+8N4hAoAgFyV5l09CKEC8m5kfPwZl+vazZszMzPFrgsA5AdCBeRTMBT6xbvvPvnAA0fOnHn/6tV0u2ozfL7u5xRw5K0oAEgFoQLyJhgKvTo09I29e9crFNYDB170+a4Eg5mjRYI8t/i5hRBedjPCpO1RAw4+cotCB5/6zoV8ijRYtTABBbAoV0OhXw0NfX3v3ioiIlIpFJ333//cpUuB+UQLT1HuPR7bXdXuNcZHi8Cgk8xmcg4GyOqJbuUdzR+prHS4LA1Wq5K9syxCBeTHi6dPP8rzVbKUeoXikR07XhkaCoVCLCUg9cyjne/B6E3GWQMtDQJ43mLh415KQSpOG9mlLlY+xzsC5OiwCYJNy54knzuZxurxx22mHRh0kqmzXdpyD6BUIVRAfnyT54+cODERDkspF0dHB06d2l9TMzk5yVI6bDqXKIqi6NL5/EQk2Hzt7Lm5rye+ARe8rf3Rl4ypg4VFGy0uuj+2JtLzF0WXznbYbe2PjAA8Vo1F6+uKDB1Mzgy7pcbtxR0YdJKpTWNoN2eKFYJNi/knWO0QKiA/GmpqvnLXXU8fPz4WDhPRxdHRIydO7K+qamhoUKlULI+O+tgEj6G310BE+ugO2trWxE1P9abIlqmGdjN5L6dqgL36pA24paGDsS/hIC/1GaUhSCwYZBSJFESZY4V8AgrzT7BKIVRAfpSXl2/dtOnxlpbu48dPjYw8f/LkgerqpqYmtVpdW1vL8vSKoii2D2ScVVoMXus0+ePGGTFxKwq9hpTHE1HgslffqmUPB51CZMRg7CPMQUFJQ6iAvFEqldsaGy0tLa+fPdtWX69Wq9VqdV1dnUKhYBksjgCRoVf02/WpBwopuAf6pBFGPGkFITDoZGsV0lgklhIdQOgE2+Hs0clt0dp0ke1aA4NOweyKBhdXxjkogNUOoQLySalUahobv3PffVqtNiFOEBFFZvW1TlN/lpkaaQHASK40szq9Lh3L1OHTsTFEVyQhmqKxdpn7jBzHOwK9frvXmGZFIbbY0NPqj444AoNOkk1wZZiDkq9VYLECVilOFMVi1wFWpO7u7sLdD4fnHf2Y989NQT8ISMBxJdpmYlQBK4LbwiVA/x1g6ZQXuwIAKXg81vgEQ68o9hanLgAxJTuAw6gCACBXuLEHAABAaggVAACQBUIFAECuMAEFAABZ4M6yAAAAqSFUAABAFggVAACQBUIFAABkgVABeTZxfeQNx+GbI9dmZmaKXRcAyA+ECsin8ZGg9+gv9z3W8buXn786/H7uu2pnxvP8fA8JBAILOAoAUkKogLwZHwlePDZw32NPVKy/8/OWp37/sxeDw1fk0aJwzXcuxUo3GmSPHQ5HQq14nk+4JaGUB6DEIVRAfoxfC1587dX7/r6Dq6omovIa1Ree+u57LzwXfD+Qr7FFBh6PJ2sev9+v1+vZHaT1er3T6QwE4m5O6/F4RFGUsomiaLVa0xQGUFoQKiA/zvz0pXvbH2FxgqlY1/DZh7564eevhEIhltLR0SEIAuut8zxvsVhYH18aE8iHHVLX3u2ObF/ndrs5jkto3xl5CZEttLXazBXu6uo6fPjwwt8wlKSSvbMsbkIO+bH7sSdOv/zC3zz538trVCxl9D3vb48dveNA2+TkJEvp7+/v6OhgIwCbzdbV1dXbm/rO4jzPu1wugyGyC11PT08gEDAajVl3ldFqtezAQCDQ0dGRIafBYBgYGHC73VmDCpSyZ599Vv60qqpKnvK9731vyWtUHBhVQH6srW/Y1va3J//t2Zkbo0Q0+p73zZeeX8Pvb2hoUKlUyfn1er0UCVKSvyoIglarzWX3sazFynV2dvb09OSYGUrTjYyKXbulg1EF5Ed5efmmLVtF02Mnnv3RZx/66m+PHa3kv9jU1KRWq2traxdZuF6vN5lMFosl3ShkYTQajclkGhwczGOZsMo888wz0uOjR49yHPfQQw8VsT7FglEF5I1SqWxs3vbpJyznT75xx4E2tVqtVqvr6uoUCoWURxCE5AOlRHmrLS1RMGyFOeslSYIgsMWMHAOA1Wq12Wy55IQSJ4rij370o29961vYWxtgsZRKZeNfaXabn9JqtclxQqPRmM3m5ItQ7XY7W4v2+Xwspb+/32g0Jixr9/b22my2zNHC5XJptVp5URKtVssW1ZMPWdibhZLy2muvEVEwGGQPSg1XmhESFq+7u7tkrwZZVvBBLI3du3d3dXU9/PDDO3bseOedd5L7HKsbRhWw8nBJUl5BC5AvR48enZ2dffDBB4movLy8BAcWCBWw8ohJNBpNsSsFq9mPf/zjQ4cOsZHED37wg0OHDpXafAxCBQBAJvIhBRE9/PDDJTiwQKgAAMhEPqRgSnBggWVtWKBjx44VuwoQ8eUvf7nYVVi1jh492t3dLa1jc1ykzWSr3KXzGwv8BA8Wrr6+vthVABobGyt2FVaz5CEFwwYWDz74YIlcCoUJKACA1N5+++1wOCytUsg99NBDHMe9/fbbS1+rosAEFCzQsWPHMKpYDsbGxpbzBNStW7fOnTs3dnO8jOMU6JouD+E5mhPn1tXV7d69q7q6OvsBmIACgMI5c+bMtZGPZpSqT9Y2zSiqwlwZUUlM1yxvokKcqwhPhqdCr7/xm8aNG/fs2Z31GIQKACiI14+/cev2zFhN80zZmmLXBeS4MKcIl9dMlddUKKfo+p/eeOM3Bw58MfMxGBBC0azbptfr9dvWFbsey4zP5/N6vXNzc8WuyKL853/+562p6etrESeWtZmyyutrmz+eun3mzJnMOTGqgLxZt03fsjH6ZGJYuBAsZm1WrOnp6aGhIb/fv2PHjq1btxa7Ogtx69atkY+uj9U0z3GK7LmhqOa48hvVam7kg1u3bmVYt0CogLy5cUUQxrbpWzbSyCXhSgnt+lII4+Pjb731ls/n27Vr14YNG4pdnfk5d+7cjFKVMJ74v/9pJuuB9ZuUf/3wB7X1G9ZU5bTWCnkxXVY5U1Fz7ty5ffv2pcuDUAEFw0YZExMTbBu8ieHzF4JTCYOPhMzMxPD5C8EqdvTw+QvBqcrGu3c2q2hiWPiwOiHbVIpDp5bgzS2N69evu93uLVu23HPPPTU1NcWuTq7Gbo5/srYpIXH7f7mjrIwiv0Jg111yRGLk3zlRFEWquUNx8dzpz+z66w2btyx1pUvbLeUdYzc/zJABoQIK7S9+4ULVNn3LxubN64JXaFvLRmLDjlgTX9l4d8vGSCu/bpu+pVnbeOPCFeESsYcfVjeraGL4vJ/u3pmYzU9aKaIU+Y0WhiiKH3zwwbVr1wwGw+L3E1waZRzNKCoTEk3fuvOh1nIimhPZxZoUnhPDczQr0myYZufE6Vk6+ftbL//rH6Z0O4tR65J2u6yyLuO1aQgVUGC3pqaIqqLP1tVvJKKRsbjpqcp161VE1LxT3xxJUVVXEU3duHJ+uHpn884WopFLF4LUeHeKbLeIiFTNO/XNqzNgcBy34kYVijIunLRKwYnixK3ZP350ayYsKhRldWsrgjemZmbFhrqq4Njk7RlRs7k2PDO7yFN7z7z9k+8/+TdffvSx//HPiyxqpZsaHw39+UrKl+o2b6usbZCnzHEKRVmmWIFQActFqoa+qlqVNdsNYSoyPFE179RXr6plkg0bNqzEtQoiSv79xJwohkWampm7PR0uL1dUKssnb8/dnhVrZuY+uT03fXtmYnJyZnq6KHXN3b//yw9PHfuPbz9zRLdnb7HrksWatXUfXf5fM7cmEtIrqmrWa3ckZc/yexdcLAtLavLWBBFVV8bNTkxN3SIiVfPmhOtm121jS+SXRmhjy92NlCYb3bgiCIJwfjjxb2Ilq62t3bdvn9FoXJlxIoW5cDg8RzOzc7dnxemZ2emweHtGvD09e3tWvD09Nz0zPXV7NjybfekbcsQpyj91N5+c/qnP/Y2ivGK+pWFUAXkTW3vY2KKvHhZSLZJNBf3D63c2yyaRiIhuXBHO37p7Z3OLPrI8PTHs+8v61mYVjVy6coNocnhiY3PzzqZh4fxwfLbzftLubI4OPSaGz6/8IcWaNWt27dr16U9/uqxsVfXkwuE5tjgRniOOi6xPzIZpJkyzczQ7R7Nhmp0NpzucdefZYza/dP3Pf/jhP3xJnue5k5dzqQmbpGKPt31m5xP/x7M//IcvbfvMzs6f/IyIDn/7a1cunmdFJZy0cauGPWWHszzf+sJ2qeR/fvn4hs1bpEkwllk6hVRzIpJXniVKR33ur7/0k+8/meN7yayh+TPX/f/r1tiIlFK97s6Gra0LKAqhAvLmxhVBiJ8alZ7LXpoKXhBS/OAiOTkYey5/MenolMWtYC0tLcWuQkHMzc6G5yrCIgsV4owozkaChPSA5mZTr1Wc+GX/qWP/Yfr2D/Z/teP6n//w+s+OSE0ta1JZ+55LNViLLA8M6XImn3T/VzuCHwSkCShWB3lRP/yHL/3zy8fZ4aeO/cdzJy+zYPPi09977uTlw9/+2qlj/3H/154koh/+w5dYhDjxy37nT37cuFVzZ1MzEV0d9kvBKQ84bvOOz/t/Eytw847P04Juhbuqui0AsGzNhWdnwjQTpplweGZ2bnaWpsM0G56bnp2bDc/NhsWZsBhOEyqCHwSI6J2TbiLasHnLY//jny/855tEZPr2D+ZbjaHTx4nI8Ph/Z09ZK5/jSRMysDrc8wUDe8oesEQi+psvP0pEjVs18jzM6z87QkSf++svERGLEOxczHMnL+dlSMGo7lTf0RTZTvgOtVa18X9bWDkIFQCwFGZnwjNzNDk9O3379tTt6cmpqenbt6enb09OTk3P3J6dmZ0Ji+E0E1CsJ37l4vlvfWH7t76w/cQv+1nbytrZAkk+aeb8yY1+SiMf/oE9+Mn3n/zWF7azuayrw36W+Klm7SKrnWzzjs9zZQqurOxTn1v4UjwmoABgKczOhmdnw2sUYVExRxzNzkyXl4VJIc7OTJeXzXEVZeE5EsOpQ8WGzVvkiwfvnHSzfvpHHw5Twa5ESj7p/q92ZMj/0YfDFB1G5CLhMirvmUJtfbGm5o4N2v9CHFepWvgN1zCqAIClMDszU1FRtml9zab1tevXqaqqKu9cr7qzQVW9turO9bV3rq/jFEoxzU0S//1ffnj9z3+gaE//U83au+/7PEVnh4gox4UKik77uP+f/0sqmf0yXCpBepB8UopGAhYVWOSQ6sAesIplxgqU6nD9z3/493/5YY71X5hNuv+66TP3LaYEjCoAYCn8ZWzSJfwpzC6EEkVxjkRRnBPZY04kkYgmb91Od7h0vdC2z+xkywamb//A+ZMfswuQtn1mZ47RQrdn77efOcImf9iBGYpKPun+r3a8c9Lt/MmPnT/5MVtUYNNTLBu7AkqaYkpnw+Yt//zy8R/+w5ekA9nCRuGUKxN/PD9f2AUPFujYsWPFrgJELLdd8I4dO/bnmrsSEq//+Q8Xz51m/fQMNmzesoB7QMmvcIWF2fzx7zN8kTCqgAWanRP/otIm378BlpJCnF0/kWUddZmord/wmV1/nfX+TpVV1bX1i/3VYfJPLiQIJwuDUAELJIpiRXgyXL5ibky0KlWEJ1fKvMCaqurC3S824ZpXaUUa8gXL2rBA6+rq1s6Gil2LUrd2NlR/x8q43SysaAgVsEC7d+8qn56omFttd3JdQSrCU+XTH+/Zs6fYFYHVD6ECFqi6urpx4531t/5UJi72xtGwAGXibP3knzY3bqqsXOzFLQBZYa0CFm7Pnj1vvPEb+mT4RrV6ugwN1tKpCE/VT/5JVV25a9euYtcltc0f/77YVYB8QqiARTlw4Itnz57jrn0wXVEzqbzjdlnlHKfIeu97WBCxTAwrw5NrZ0IVMx9/qnHTso0T77zzzsGDB4tdC5if7u5uXCwLBbR7965bt26dO3du7OaHdRxl3ksLFiM8J86JVH9H7Z49X8K8EywlhArIg+rq6n379hW7FjnZvXt3V1fXQw89xJ5yXORXqEePHu3u7n7nnXe4Bd2iGWB1w7I2lJYf/OAHhw4dSr5JwY9//ONDhw4hTgCkhFABpeXhhx8uLy9/7bXX5IlHjx6dnZ198MEHi1WrEvHJB52fvP+t8Owt3E9oxUGogJKTPLDAkGIJfHL588qwUKG4cPv/094cvTKbZhcjWJ4QKqDkJAwsMKRYAlPX+io3fJqqKjmlrrKi5uMr1vHx8SUbWwQCAZ7nl+ZcqxVCBZQi+cACQ4olwJVViXM3FQpSfHKGZmcnPxkPhUJzaXanyEXm1j+XwMDJuN1ueQrL4HA4pBSHw5FwFHsspbP68DzPxZMyrHQIFVCK5AMLDCmWwJo7H/9k5A9ztz8RP56YmJq4MNpR0Njs8Xiy5tHr9aIoiqLo9/t7enqIyO/3s0QicjgcTqdTjPL5fOwoeR69Xu90OgOB2J19PR4PK1Aq3Gq1FuQdLjmECihRXV1d3d3dRIQhxRKpeYJTrJn8eMw7smfTp1rq6urKyuLaH3kfXxoWSKMHqY/PnnZ0dAiCkK7bzvIEAgF2iFabacNqv9+v0+kSEm02W39/bDPt3t7elMd2dXUdPnw461tfBRAqoERJIwkMKZaGUqkkjsJUHlL+ty1btqhUKnmE5nne5XKxnrjBYEg+3GazsVdZs97f38967hm67VqtlpXp9/uTX2WRhuM4o9HY2dmZ8Kper9dosu+SzarK5q9WN4QKKFEcx/3TP/3T1772NQwplgb7fy4TJ9fdUaNSqcrLE3//mzJCJJeQroOfTK/XZyhTPgHV0dGRLhtbfsiw+NHZ2cnmr1Y3/FobSsuhQ4ekx6Iobt++XZ4ifwyFIHJl4oKaHbY8wKJFfi+d0mg0giAkJAqCEAgENBqNx+MJBAIZYolGozGZTIODg3ms0jKEUQWULvnlLlBolRufmLwZvMntrKqqUihS7LMrn8aR2m6pCWZrEqIo6vV6tpKc3L4nYM29vJCU3G63Xq9PSLTb7RnCQwKr1Wqz2XLMvEJhVAGlBeOGIgpvPjdbObqpqkqpVCa81N/fLy0+u1wuu93OorjZbGaJNpuNNcd2u52tIpjNZo7j7HZ7uuUKl8vFypQKkWNrFewxG6awzOy2YKxMKYPdbmcP5HkSzrW6p6ES3zBASTl06BCCR951d3fjJuQrTuZPDRNQUNLY9bKwonFJ5L91gLzABBQArGyYGlkCGFUAAEAWCBUAAJAFQgUAAGSBUAEAAFkgVAAAQBYIFQAAkAVCBQAAZIFQASUNPyoGyAVCBZQ03NUDIBcIFQCwREbGx59xua7dvDkzM1PsusD8IFQAwFIIhkK/ePfdJx944MiZM+9fvb/4fSMAACAASURBVDo9PV3sGq0ePM9bLJZcci74BlkIFVDSMAG1NIKh0KtDQ9/Yu3e9QmE9cOBFn+9KMLiYaCHtub2UEk7K87y82eV5Xno13b0L3W63lM4ad3mByeXLn6Yr0+Fw6HQ6tjlgch7pKcvscrly34dDDqECShruLLsEroZCvxoa+vrevVVERKRSKDrvv/+5S5cCi4sWS4/tk8GaYPavtP+21HazB/LdWKV9OBwOh9FoFKMynyuhwHRlEpHNZpPvDS6Vr9FoLBYL213cbrezyLTgzcARKgCgsF48ffpRnq+SpdQrFI/s2PHK0FAoFJISpf6v2+2WetNSR9vhcLBX2dOOjg62NxHbHS8Bm5CRSpMfLnW3WZ9dOp2Uk5003f3Mpb1R/X6/yWSS0gcHB00mk06nS9hxT4olROR0Ov1+v/Q08ybh6QpMKJNt4SdPkevr62Oxoa2tzev1Sm/h8uXLGU6dmghQwvAnUAiHDh2SP71248bTr78+PjsrpXj/8pd//PnPf/Ob3/zhD39gKXq9nvV/pafsgd/vZ4+lT8psNsvTUyIiVprL5UrI5nK5WAlE5Pf7XS6X9EDKKZ0r+SzS4WazOaHC8kKko1IWm1BVOSlzQoHpyrTb7Xa7Pbk0lig/o/RYegsJEj61BNivAgAKq6Gm5it33fX08ePf/dKX6hWKi6OjR06cOFBd3dDQoFKppGys/5sB26Y0c2ec0ev1rDRpoiYQCEiP2U7aUmc8Za883abrBoPBaDT29vZ6vV6pJtJklEajMRqNgUBA2o1Vr9d7PB75eZOrKmUIBAJsISG5QI1Gk7LMBFK04Diura0tZR6tViuNMHKHCSgAKKzy8vKtmzY93tLSffz4qZGR50+ePFBd3dTUpFara2trcyyE9W3lK7TzotVq/X4/GyhkzZwwkkh41Ww2u91unU4npQwODrJ2nNVtcHCQleD3+wVBkLIJgpDj1UfJBUq1Sigzw1uQPw0EAlKK3++XVz5HCBUAUHBKpXJbY6OlpeX1s2fb6uvVarVara6rq1MoFFIe+Vqr1BpKM/VsTYLNw7AGN5cWUyINHZKn/pMJgpBh4be9vd1oNLa3t0spTqdTmoxyuVxOp5OlazQal8slxTa73S5fjs5weWu6ApPL3L59u/Sq2+1m1WbDGo1Gw6Iae9dSeLh8+XJra2vW/4REGSanAFY9/AkUQrpZ79u3b3/00Ud//OMfx8bGZmVLF2J8Z9/lctntdvbYbDZLaxVSg8sOMZvN8qdyyUsdLLO8QKmTnvAgoTIpV0TkX5vk9Qwi2rlzp/SUvRc2ppHeF6uJvKpSUSkLTEiUlyk9SPg/lI5NaOoTloUkmdcqOBHb0kIJY9Pfxa7FatPd3Y2bay0Zh8Ph8/lyWcIhIrfb3dPTk3KpI/OnhgkoAFjZuCQL+0HyCmW1Wr1eb46/1jYajf39/Qs4C66AgpKGzu8qgHFhuguiki34/wqjCihpuLEHQC4QKgAAIAuECgAAyAKhAkoaJqAAcoFQASUNd5YFyAVCBQAAZIFQAQAAWSBUAABAFggVAACQBUIFACyRkfHxZ1yuazdvzszMFLsuMD8IFQCwFIKh0C/efffJBx44cubM+1evLtmu2tLeq7AYCBUAUHDBUOjVoaFv7N27XqGwHjjwos93JRhcsmixPMnvb8h2lZCeSnnkW4KzHTvkeeRbi7NNyNkm4XIp9x5fAIQKACisq6HQr4aGvr53bxUREakUis7773/u0qVAaUcL+fYYPT09JNuUgmVwOBxOp1PaMcLn8yXk0ev1TqdTfhtdj8eTsIWG1WrNS20RKqCk4c6yS+DF06cf5fkqWUq9QvHIjh2vDA2FQiGWIu8+s7aP53mLxSLvdKdMYYezPnXKctKRSmOHJxwl79qnzJNcmZT1SS45WbodTG02m/yG4Sl3pOjq6jp8+HCGt5kvCBVQ0nBjjyXwTZ4/cuLERDgspVwcHR04dWp/Tc3k5CRLsVqtrBfscrlY2ycIQnt7O0thne7klGTJ5aQjlUZEWq1W6uB3dHRQdANtInK73WwHvYQ8uVQmZcnyCrAQYjQaOzs7k4+VNnnNwGAwUPxeswWCUAEAhdVQU/OVu+56+vjxsXCYiC6Ojh45cWJ/VVVDQ4NKpWJ5pN630Wj0er1EpNfrWTso7UednJIsuZx0pNIYdpRWq2Vbdre3tw8MDBDRwMCA1I7L8+RSmZQlyyuQLookYCsQ6dbnOzs7M8SqfEGoAIDCKi8v37pp0+MtLd3Hj58aGXn+5MkD1dVNTU1qtbq2tpbl0Wq1yRtEL8DCykney9pgMLBI4/V6Wdc+Oc/CSk6m0WgSoggjCAKbs/J4PBnejkajMZlMg4ODOVZpYRAqoKRhAmppKJXKbY2NlpaW18+ebauvV6vVarW6rq5OoVCwDNJky7yaPKmFlY5acDnJczgmk8lisZhMpgx5stYnl6Pcbrder09Ot9vtmUcbEqvVarPZcsm5YNgwFUpad3c3osXSUCqVmsbG71RXT01N1dTU1NbWSnGCiHQ6HVs9ZgsDObLb7QlHLawcv98vn+Zi+4+2tbXZbDZpKJCQJ8f6pCyZYWsV7LG0ZEJEHMexp+ziJSmP3W5PziPJvGSyeInnAygpyX9ysHjd3d24tGzFyfypYQIKAFY/LknmS2khASagAGD1w9hxkTCqAACALBAqAAAgC4QKAADIAqECAACyQKgAAIAsECqgpOHyf4BcIFRAScNPtQFygVABAABZIFQAAEAWCBVQ0jABtZRGxsefcbmu3bw5MzNT7LrA/CBUQEnr7u4udhVKRTAU+sW77z75wANHzpx5/+rVUt5Ve3ECDp7jLDlte8dxvCNPd7pCqACAgguGQq8ODX1j7971CoX1wIEXfb4rweCiokXAwWdoBjO/upBTJJQYcPCxdpiP3YQw/qxuS+wVC9sMPL6MuPLjjk5XZsDRYdO5xF5DfOksj5QSiSSiS2fryE+wQKgAgMK6Ggr9amjo63v3VhERkUqh6Lz//ucuXQosMloUmqbNRM5B1tAGBp1kapM2ug4MOslsll7V2/2RvU9NTm2kmQ44eM5Iruj+dy4ayDQQSCgwTZlE7sM2sndK+7yao+V7rBpyWyLn89u9RnaEodNOtsP52HgboQIACuvF06cf5fkqWUq9QvHIjh2vDA2FQqFoWqyPbHHLet/RrnfAwcs70I4OmyDYtGlmWKRXYx1scls43hEgnrdY+Pi+d0LRMbJY4fclRgpTZ7tOkDXt7IjtuujDQSfZ/b1So27ojT1OlrbA+DLJPdCnl9Uj3kCfud0QqbfeezmQ8HBxECoAoLC+yfNHTpyYCIellIujowOnTu2vqZmcnGQpDj7WA0/ZpnbYdOx1l87nJ7L22/V6u591p5NIr4oucx/rzbsH+sxdVg2R4G3tZwWZ+4wWN5FF6+uS+u/x0zWa7TrB52dH67bHR4o2jaHdnNi0uwf69K1s0zunIDtCEg1gHMdxWlt0Q+30BcaXGbjsjY8UfcZUIS5W77iHi4JQAQCF1VBT85W77nr6+PGxcJiILo6OHjlxYn9VVUNDg0qlYnmc8mmVVHTUZ+Qs7mzd80SGdhYr3FKXW2prDe1m8l4OkDfa4HJam5DQrEYOD1z2Ro4mkk1GSU27FAB6Wv1S7Iq273GkaSVRFP12fboCKU2Z8e+tNzq5lWlFQtual2EFQgUAFFZ5efnWTZseb2npPn781MjI8ydPHqiubmpqUqvVtbW1ORbSK4qi2D4gn1LKCWvsY5EiBXnznTikMbSbvZfdg05dXKSIzm4Z+0hwDgYiJfjtelmkSTmZlFKKAqVaxZeZhrY1YavvwGWvFKj8vpTDm/lCqACAglMqldsaGy0tLa+fPdtWX69Wq9VqdV1dnUKhYBlMCauv0fYxMOhkszQWR4DI0Cv67VInOXMbGn3V0Gn3Go3e5EFLdN5fJ2Ra+DW062xGW0KkMMdWq2VTRhqrx0XGaCTrtJMtthxNbku6CJe+wKQyNdtlAUgqMTDIJrvao5Nt0QSi+KixKCJACcOfQCEcOnQoZfrt27c/+uijP/7xj2NjY7Ozs3GvSbMxRGZX7JnebGarDuboq9IYwGWOe5pA9qo/unAhiqIo639H22fZqVMV5zLHLjRKKIy9qqc7Yyl+u14qRV4wK0OfMAGlt/tTFWj3x+WUlRl5Nfl/TPamZQmi366X1z6TdJ8ag78TKGkHDx4sdhVWocyNzlKTta5iQmO9As2j7RcT33tmmT81TEBBScONPVY++S/RUlzzKl36tDporP12rzHXX2sbvfb+/Lz38nwUAgBQLIZeUezN+LJ8lcLjsRa8RoWlsXrEHN+DKHrydVaMKgAAIAuECihpmIBagEOHDkn/b/LHsIohVEBJw51lAXKBUAEAAFkgVAAAQBYIFVDqEi60lM+8Hzp0KPE6TOTkuO7u7jfffFPK+eabbyZkWPyHAssNJ4pisesAACsJiyjJ/0q6u7sPHjy45PWCRcn8qWFUAQAAWSBUAABAFvi1NgDMT8KSRu4HjoyPv3D69BN6fcPatRUVFXmvGBQORhUAsBSCodAv3n33yQceOHLmzPtXr85jV+3onqmZUlaVgIOfx64caTaNzTOECgAouGAo9OrQ0Df27l2vUFgPHHjR57sSDM4jWhROXNRJCEEBBx9rh/nYFV7xTbP8doUWNxEllhFXftzRKcsMODpsOld0jyV56SyPlBIJJpk3wcsXhAoAKKyrodCvhoa+vndvFRERqRSKzvvvf+7SpcByiBaaNhNFdwuSNi4l6anZLL0q3c3bb3JG9ywKOHgutim46KKBTGOBhAJTl+k+bEvYPFa657jHqiG3JXI+v91rZEcYOu2UaXemvECoAIDCevH06Ud5vkqWUq9QPLJjxytDQ6FQiKUEHHxi/1pK0toESp3C8w6HJdq/jhURKSEhIel1RhYr/L7ESGHqbE/e+FSzXRd9OOgkuz+2x2rmfb/TFigvM7o3XzrSzq+aNlN0P0DZw4JBqACAwvomzx85cWIiHJZSLo6ODpw6tb+mZnJykqVorJ5oz1zHesgWrU3HutPR7d6SU0iw+dpFtiG2RevrknroHY4AUUc0u0vn8yc9lWi269jmqu6BPtku1JEhhqHdnNi0uwf6onuQOlPuWx3ZKDs+zmUoUFZm4LI3KVL0GVNMe8nqHfewUBAqAKCwGmpqvnLXXU8fPz4WDhPRxdHRIydO7K+qamhoUKlUkUxSn9/YR97LASKvPnE77OQUkqV4o00qp7UJgs9PpKM+tgcQ6+wnPI0xsE2pA5e95rgttNkQQ2rapQDQ0+r3RPcLSrlvdcKuqOkKpDRlxjH0xkJo+hUJbWuhhxUIFQBQWOXl5Vs3bXq8paX7+PFTIyPPnzx5oLq6qalJrVbX1tayPLzWaUraMnp+4nYG7TUQ9YqiKLYPRFeAE57KGNrN3svuQacuLlIIkXbc2EeCczAQKd9v18s68Cknk1JKUaBU5/gy09C2Jvy/BC57pUDl96Uc3uQRQgUAFJxSqdzW2GhpaXn97Nm2+nq1Wq1Wq+vq6hQKRSRHdNolMOhkMzZSK5whRU4nJC7tWhwBIkOv6LfrvZcDiU/lDO06m9GWECliO1i7ZFNGGqvHRdKGpZ12smljgcdtSXeJa/oC48vUbI+PPlKJgUE22cVGQLIEovioUSAIFQCwFJRKpaax8Tv33afVahPjBFGXLjIV0+HTsd5zryuSlCFFrtdv9xrjl8YjRWqdpn6rJumpnKHdTAmzT7LJLkO7WXB+JLXfBnYq3hEgjdUjP62R2lMva6cqMG44IpWpjX9J2xopXWvTuXoNRIZeFxnlCRQfNQoFtwsEgDzD7QIXI+Dgtb4uMdO1VPHclvRLHfOA2wUCAKwYGmu/3Wucx6+1jV570jAp73APKACAZUVj9YjWnHOLoqeAdYnCqAIAALJAqAAAgCwQKgAAIAuECgAAyAKhAgAAskCoAACALBAqAAAgC4QKAADIAqECAACyQKgAgCUyMj7+jMt17ebNmZmZYtcF5gehAgCWQjAU+sW77z75wANHzpx5/+rV4u+qDfOBUAEABRcMhV4dGvrG3r3rFQrrgQMv+nxXgsEM0YLn+axlcjJut1ueIuVxOBxSosPhSMgjJRJRIBDgeZ7neS6elKHEIVQAQGFdDYV+NTT09b17q4iISKVQdN5//3OXLgXSRwuPJ/st8PR6fWRPUr+/p6eHiPx+P0tkGRwOh9PplDbG8/l8CXn0er3T6QwEYhtHeDweVqBUuNWa+437VjOECgAorBdPn36U56tkKfUKxSM7drwyNBQKhViKvDvvdrvZqELezWfjhpT8fr9Op0tOt9ls/f390tPe3t7kPF1dXYcPH17gGyslCBUAUFjf5PkjJ05MhMNSysXR0YFTp/bX1ExOTrIU1p13uVx6vd5giOzqIwhCf38/SzcajQnFCoIQ2XvOaOzs7Ew+r16v12iy7OPAzpUhDgGDUAEAhdVQU/OVu+56+vjxsXCYiC6Ojh45cWJ/VVVDQ4NKpZKyBQIBo9EoHwdIbT1r0OUzRRQ/AdXR0ZGhAmxokm79o7Ozk81fQQYIFQBQWOXl5Vs3bXq8paX7+PFTIyPPnzx5oLq6qalJrVbX1tZK2To6OlwuV9ZxQDKNRiMIQnK6IAgsung8Hr/fn+Fwk8k0ODg43/OWFOyCBwAFp1QqtzU2Woh+evZsW339+vXrm5qa6urqFAoFy+BwOHQ6nTT1lMDtdmeYTWKvJqfb7faOjo5cVsitVivHcSkLAQahAgCWglKp1DQ2fqe6empqqqampra2VooTRGSz2Yior6+PiKRLmNhqBHssJUqSX9VqtUTEcRx7yi5ekvLY7fbkPBKXy4VpqAwS/78AABapu7v74MGDiy+H5/lcxgSQF5k/NaxVAABAFggVALBMYUixfCBUAABAFggVAACQBUIFAABkgVABAABZIFQAAEAWCBUAAJAFQgUAAGSBUAEAAFkgVAAAQBYIFQCwREbGx59xua7dvDkzM1PsusD8IFQAwFIIhkK/ePfdJx944MiZM+9fvZpuV20JzzsCmXOsBgEHz3GWnPbg47hi/o8gVABAwQVDoVeHhr6xd+96hcJ64MCLPt+VYDBrtMizgEMWfuRPAg4+rh2ObfOd0Dq7LbFXLO64YBZXeGKZ6QoMODpsOpfYa4gvmuWRUiKRRHTpbB1FCxYIFQBQWFdDoV8NDX19794qIiJSKRSd99//3KVLgSWOFpo2EzkHWVsbGHSSqU0jPTabpZeISG/3R/ZiNTm1kZY64OA5I7nECBcNpNh4T5JQZqoCidyHbWTvlHZzMkcL91g15LZETua3e43sCEOnnWyHi7QLOEIFABTWi6dPP8rzVbKUeoXikR07XhkaCoVCLIXnLRY+vhdNNJjQrw44ErLwvMORNk/ydI0sVvh9cZHC1NmuE2SxQjpiuy76cNBJdn+v1K4bensz7JmXtkxZgeQe6NNHK5FkoM/cbohUWu+9HEh4uOQQKgCgsL7J80dOnJgIh6WUi6OjA6dO7a+pmZycjCQJ3tZ+1l0397FetGDztUdTehwBIovWpkvoaKfI4+uS+u9J0zWa7TrB5yci90CfbrssUrRpDO3mFLHCPdCnb9USEZFTiB4hEWxaadJIa5MNMtKXKSswcNkbHyn6jClDnFTpuIdLDaECAAqroabmK3fd9fTx42PhMBFdHB09cuLE/qqqhoYGlUoVySS1moZ2M3kvB4j00bkZbSvrv3ujKZo2k75vwE2p8kQbXE5rE5KbVUO7uW/ATYHL3kifPTYTJW/XpRjQ0+r3WCOtebSJj5GmlURR9Ntjg4zkMlMWGF+z3ujMVqYVCW1rsYYVCBUAUFjl5eVbN216vKWl+/jxUyMjz588eaC6uqmpSa1W19bW5vlk8uZbjM0XRRnazd7L7kGnLhYphEg7buyjaKxghfjtelmwSTlBlVKKMlMVmEY06MWKu+yVopTflzy2WRoIFQBQcEqlcltjo6Wl5fWzZ9vq69VqtVqtrqurUygUiVnTz+DrhMiibmDQKURHBenypGNo19mMNnmkMMeWquPnizRWj4uM0UWQTjvZYivS5LZY0ixrpy8zvkDNdln0cVuiay2DbKaLDX9kCUTxUWOJIVQAwFJQKpWaxsbv3HefVqtNESekKRojuVJP0VCv3+41srklnSt5wBCfJ/XCNrEJLvnsk+wSpOS1BQMrj3cESGP1yMs2UnvqZe1UZX4USFFg3Om0rZGio+/N0OuixDcrjxpLjRNFsSgnBoDVqru7++DBg/M6hOcd/WkixCoWcPBaX1eKebKU3Jb0Sx15kPlTw6gCAKA4NNZ+u9eY66+1jV57f9GiaXmRzgsAEOPxWItdhaLQWD1iju9cFD2FrUtGGFUAAEAWCBUAAJAFQgUAAGSBUAEAAFkgVAAAQBYIFQAAkAVCBQAAZIFQAQAAWSBUAABAFggVALBEJq6PvOE4fHPk2szMTLHrAvODUAEAS2F8JOg9+st9j3X87uXnrw6/vxS7agccfMqby8L8IVQAQMGNjwQvHhu477EnKtbf+XnLU7//2YvB4SsZokWsiZ9Pc59LzujO27HtuBP2645tzi27i7k8Dy+/u3nAwfOOp+SFpr/9+YqGUAEAhTV+LXjxtVfv+/sOrqqaiMprVF946rvvvfBc8P1AumjhWdCttnM6Stomz2/39jgCRB6/Xa+3+8VeA7sruNMU3UfPb/JFtpOQ5yG9WRe/bbfVE90zNVr46rufOkIFABTWmZ++dG/7IyxOMBXrGj770Fcv/PyVUCgUTXNbZJ19aXzg6LBFNx+V7tXttqTptUeOksYFWluajeqIKPXmo4dtJLvRt8bam7LJb+3s0mXZbG/VQagAgMLa/dgTp19+YfbjCSll9D3vb48dreb3T05OshQHb6ToJqPynX6s/dGuuiu6g6h7oM/claHXbtHadK5oNz/55dh2e17ZZnUR3jR7tSYy9LrImNs2E6sEQgUAFNba+oZtbX978t+enbkxSkSj73nffOn5Nfz+hoYGlUrF8sRtMpqSIbLbtHugL82+2hFefcaiYhNQpvhpJLnowCT9moOhMzJ/VSIQKgCgsMrLyzdt2brd9NiJZ38UFN5+66UXKvkvNjU1qdXq2tranIthsSJrpMiZZrtO8Pnj03SRza41Vk+aQUnscGu/yXl4MB81WQkQKgCg4JRKZWPztk8/YTl/8o07DrSp1Wq1Wl1XV6dQKFgGE6Wf/I826IZOu9eYatooXrS5p8CgM9NahXugT9+qjU/rtJMt7VAjkcbaRbaMyyGrCDZMBYCloFQqG/9KU21+ampqqqampra2VooTRGTtt/NajiMiIrNLjB2msXaZOSPXp7f7PdY2k95J2RYTel06TsvZiPRmc5q1Clv0PFYNEa+1CURazucSew1Wj5/4aAbS2/3sZPI8srIMvS5zX8+8/ytWIk4Uxey5AABy1t3dffDgwfyX67ZwPa3+1Xch6vKQ+VPDBBQArAzxlz7FLq5dvb97W0YwAQUAK4OhVzTEPYubDIKCwqgCAACyQKgAAIAssKwNAHl27NixYlcBFuLLX/5yupewVgEA+VdfX1/sKsD8jI2NZXgVE1AAAJAFQgUAAGSBUAEAAFkgVAAAQBYIFQCw7Kzbptfr9dvWFbseK5nP5/N6vXNzc3kpDVdAAUDBrdumb9kYfTIxLFwIFrM2pWF6enpoaMjv9+/YsWPr1q2LLA2jCgAouBtXBOHSCBHRyCXEiaU0Pj7+1ltvuVyu69evL6YcjCoAYMmxUcbExATbBm9i+PyF4FTC4CMhMzMxfP5CsIodPXz+QnCqsvHunc0qmhgWPqxOyDaV4tCpJXhzy9D169fdbveWLVvuueeempqaBZSAUAEAxfIXv3Chapu+ZWPz5nXBK7StZSPRyCXhyo1YE1/ZeHfLxkgrv26bvqVZ23jjwhXhErGHH1Y3q2hi+Lyf7t6ZmM1PWimiFPmNLgOiKH7wwQfXrl0zGAzz2XwwAqECAIrk1tQUUVX02br6jUQ0MnZDnqVy3XoVETXv1DdHUlTVVURTN66cH67e2byzhWjk0oUgNd6dItstIiJV8059MwIGcRyHUQUArGapGvqqalXWbDeEqcjwRNW8U199SbhyI/GY0rBhw4Zdu3Zt2LBhwSVgWRsAloXJWxNEVF1ZKU+cmrpFRKrmzQnXza7b1rKRRi4Jl0ZoY8vdjZQmG924IgiCcH54opA1X85qa2v37dtnNBoXEycIowoAWAKxtYeNLfrqYeHDFHmmgv7h9TubZZNIREQ3rgjnb929s7lFH1menhj2/WV9a7OKRi5duUE0OTyxsbl5Z9OwcH44Ptt5P2l3NkeHHhPD50tsSLFmzZpdu3Z9+tOfLivLw5AANyEHgDw7duwY7iy74oyNjWW4CTkmoAAAIAuECgAAyAKhAgAAskCoAACALBAqAAAgC1wsCwD5l3mjZlhxECoAIM9m58S/qLRhTlHsikCuFOLs+olAhgyYgAKAPBNFsSI8WexawDxUhCcz/8QOoQIA8mxdXd3a2VCxawHzsHY2VH9HptvNIlQAQJ7t3r2rfHqiYq6k7+S6glSEp8qnP96zZ0+GPAgVAJBn1dXVjRvvrL/1pzJxtth1gSzKxNn6yT9tbtxUGX+jxsRsS1YhACgde/bsqalcs+GTYSXGFstYRXhqwyfDqurKXbt2Zc6J2wUCQKGcPXsueO3adEXNpPKO22WVc5yCiCt2pUAsE8PK8OTamVDFzMefatyUNU4QQgUAFNStW7fOnTs3dnO8jCNFGeLEshCeE+dEqr+jds+ePZnnnSQIFQAAkAXWKgAAIAuECgAAyAKhAgAAskCoAACALBAqAAAgC4QKAADI4v9vrw4EAAAAAAT5W4+wQEmkCgCGoiVZ0wAAAAhJREFUKgAYAVZ5iQrryUPiAAAAAElFTkSuQmCC;" parent="1" vertex="1">
          <mxGeometry x="40" y="240" width="526" height="788" as="geometry" />
        </mxCell>
        <mxCell id="43hzGaEq3vHwYV2Zz9O_-5" value="&lt;font style=&quot;&quot;&gt;&lt;span style=&quot;font-size: 17px;&quot;&gt;&lt;b&gt;База данных &quot;UMMC&quot;. Описание&lt;/b&gt;&lt;/span&gt;&lt;br&gt;&lt;br&gt;&lt;div style=&quot;&quot;&gt;&lt;i style=&quot;&quot;&gt;&lt;font style=&quot;font-size: 15px;&quot;&gt;Автор: П.А. Иванищев&lt;/font&gt;&lt;/i&gt;&lt;/div&gt;&lt;div style=&quot;&quot;&gt;&lt;i style=&quot;&quot;&gt;&lt;font style=&quot;font-size: 15px;&quot;&gt;&lt;br&gt;&lt;/font&gt;&lt;/i&gt;&lt;/div&gt;&lt;div style=&quot;&quot;&gt;&lt;font style=&quot;font-size: 15px;&quot;&gt;&lt;u&gt;Основные задачи базы данных:&lt;/u&gt;&lt;/font&gt;&lt;/div&gt;&lt;div style=&quot;&quot;&gt;&lt;ol&gt;&lt;li&gt;&lt;font style=&quot;font-size: 15px;&quot;&gt;хранение данных о клиентах, заказах, логистике, отгрузках;&lt;/font&gt;&lt;/li&gt;&lt;li&gt;&lt;font style=&quot;font-size: 15px;&quot;&gt;анализ данных&amp;nbsp;&lt;/font&gt;&lt;font style=&quot;font-size: 15px;&quot;&gt;о клиентах, заказах, логистике, отгрузках.&lt;/font&gt;&lt;/li&gt;&lt;/ol&gt;&lt;span style=&quot;font-size: 15px;&quot;&gt;&lt;div&gt;Возможности проведения аналитики с хранимой в базе данных информацией продемонстрированы на примере набора&amp;nbsp;&lt;span style=&quot;background-color: initial;&quot;&gt;скриптов, представленных в отдельном sql-файле.&lt;/span&gt;&lt;/div&gt;&lt;/span&gt;&lt;/div&gt;&lt;div style=&quot;&quot;&gt;&lt;i style=&quot;&quot;&gt;&lt;font style=&quot;font-size: 15px;&quot;&gt;&lt;br&gt;&lt;/font&gt;&lt;/i&gt;&lt;/div&gt;&lt;div style=&quot;&quot;&gt;&lt;i style=&quot;&quot;&gt;&lt;font style=&quot;font-size: 15px;&quot;&gt;&lt;br&gt;&lt;/font&gt;&lt;/i&gt;&lt;/div&gt;&lt;/font&gt;" style="text;strokeColor=none;align=left;fillColor=none;html=1;verticalAlign=middle;whiteSpace=wrap;rounded=0;" parent="1" vertex="1">
          <mxGeometry x="40" y="70" width="760" height="150" as="geometry" />
        </mxCell>
        <mxCell id="43hzGaEq3vHwYV2Zz9O_-7" value="&lt;b&gt;Справочник&amp;nbsp; городов.&lt;/b&gt;&lt;br style=&quot;border-color: var(--border-color);&quot;&gt;&lt;span style=&quot;background-color: rgb(255, 255, 255);&quot;&gt;В таблице представлены:&lt;br&gt;&lt;ul&gt;&lt;li&gt;&lt;span style=&quot;background-color: rgb(255, 255, 255);&quot;&gt;идентификатор и название города,&lt;br&gt;&lt;/span&gt;&lt;/li&gt;&lt;li&gt;&lt;span style=&quot;background-color: rgb(255, 255, 255);&quot;&gt;штат, к которому относится город,&lt;br&gt;&lt;/span&gt;&lt;/li&gt;&lt;li&gt;&lt;span style=&quot;background-color: rgb(255, 255, 255);&quot;&gt;население и площадь города&lt;/span&gt;&lt;/li&gt;&lt;/ul&gt;&lt;/span&gt;" style="rounded=0;whiteSpace=wrap;html=1;align=left;" parent="1" vertex="1">
          <mxGeometry x="610" y="270" width="210" height="130" as="geometry" />
        </mxCell>
        <mxCell id="43hzGaEq3vHwYV2Zz9O_-8" value="" style="endArrow=none;dashed=1;html=1;rounded=0;movable=1;resizable=1;rotatable=1;deletable=1;editable=1;locked=0;connectable=1;entryX=0;entryY=0.25;entryDx=0;entryDy=0;" parent="1" target="43hzGaEq3vHwYV2Zz9O_-7" edge="1">
          <mxGeometry width="50" height="50" relative="1" as="geometry">
            <mxPoint x="570" y="303" as="sourcePoint" />
            <mxPoint x="610" y="290" as="targetPoint" />
          </mxGeometry>
        </mxCell>
        <mxCell id="43hzGaEq3vHwYV2Zz9O_-10" value="" style="endArrow=none;dashed=1;html=1;rounded=0;movable=1;resizable=1;rotatable=1;deletable=1;editable=1;locked=0;connectable=1;" parent="1" edge="1">
          <mxGeometry width="50" height="50" relative="1" as="geometry">
            <mxPoint x="590" y="470" as="sourcePoint" />
            <mxPoint x="610" y="470" as="targetPoint" />
            <Array as="points">
              <mxPoint x="570" y="470" />
            </Array>
          </mxGeometry>
        </mxCell>
        <mxCell id="43hzGaEq3vHwYV2Zz9O_-11" value="&lt;b&gt;Справочник&amp;nbsp; водителей.&lt;/b&gt;&lt;br style=&quot;border-color: var(--border-color);&quot;&gt;&lt;span style=&quot;background-color: rgb(255, 255, 255);&quot;&gt;В таблице представлены:&lt;br&gt;&lt;ul&gt;&lt;li&gt;&lt;span style=&quot;background-color: rgb(255, 255, 255);&quot;&gt;идентификатор водителя,&lt;br&gt;&lt;/span&gt;&lt;/li&gt;&lt;li&gt;&lt;span style=&quot;background-color: rgb(255, 255, 255);&quot;&gt;имя, фамилия водителя,&lt;/span&gt;&lt;/li&gt;&lt;li&gt;&lt;span style=&quot;background-color: rgb(255, 255, 255);&quot;&gt;адрес и почтовый индекс,&lt;br&gt;&lt;/span&gt;&lt;/li&gt;&lt;li&gt;&lt;span style=&quot;background-color: rgb(255, 255, 255);&quot;&gt;телефон водителя,&lt;/span&gt;&lt;/li&gt;&lt;li&gt;&lt;span style=&quot;background-color: rgb(255, 255, 255);&quot;&gt;город водителя (связь со справочником городов)&lt;/span&gt;&lt;/li&gt;&lt;/ul&gt;&lt;/span&gt;" style="rounded=0;whiteSpace=wrap;html=1;align=left;" parent="1" vertex="1">
          <mxGeometry x="610" y="440" width="210" height="140" as="geometry" />
        </mxCell>
        <mxCell id="43hzGaEq3vHwYV2Zz9O_-12" value="" style="endArrow=none;dashed=1;html=1;rounded=0;movable=1;resizable=1;rotatable=1;deletable=1;editable=1;locked=0;connectable=1;" parent="1" edge="1">
          <mxGeometry width="50" height="50" relative="1" as="geometry">
            <mxPoint x="590" y="850" as="sourcePoint" />
            <mxPoint x="610" y="850" as="targetPoint" />
            <Array as="points">
              <mxPoint x="570" y="850" />
            </Array>
          </mxGeometry>
        </mxCell>
        <mxCell id="43hzGaEq3vHwYV2Zz9O_-13" value="&lt;b&gt;Справочник&amp;nbsp; клиентов.&lt;/b&gt;&lt;br style=&quot;border-color: var(--border-color);&quot;&gt;&lt;span style=&quot;background-color: rgb(255, 255, 255);&quot;&gt;В таблице представлены:&lt;br&gt;&lt;ul&gt;&lt;li&gt;&lt;span style=&quot;background-color: rgb(255, 255, 255);&quot;&gt;идентификатор клиента,&lt;br&gt;&lt;/span&gt;&lt;/li&gt;&lt;li&gt;&lt;span style=&quot;background-color: rgb(255, 255, 255);&quot;&gt;наименование клиента,&lt;/span&gt;&lt;/li&gt;&lt;li&gt;&lt;span style=&quot;background-color: rgb(255, 255, 255);&quot;&gt;годовая выручка,&lt;br&gt;&lt;/span&gt;&lt;/li&gt;&lt;li&gt;&lt;span style=&quot;background-color: rgb(255, 255, 255);&quot;&gt;тип клиента,&lt;/span&gt;&lt;/li&gt;&lt;li&gt;&lt;span style=&quot;background-color: rgb(255, 255, 255);&quot;&gt;контакотные данные&lt;/span&gt;&lt;/li&gt;&lt;li&gt;&lt;span style=&quot;background-color: rgb(255, 255, 255);&quot;&gt;город клиента (связь со справочником городов)&lt;/span&gt;&lt;/li&gt;&lt;/ul&gt;&lt;/span&gt;" style="rounded=0;whiteSpace=wrap;html=1;align=left;" parent="1" vertex="1">
          <mxGeometry x="610" y="800" width="210" height="170" as="geometry" />
        </mxCell>
        <mxCell id="43hzGaEq3vHwYV2Zz9O_-15" value="&lt;b&gt;Справочник&amp;nbsp;&amp;nbsp;грузовиков, на которых совершаются &lt;br&gt;перевозки.&lt;/b&gt;&lt;br style=&quot;border-color: var(--border-color);&quot;&gt;&lt;span style=&quot;background-color: rgb(255, 255, 255);&quot;&gt;В таблице представлены:&lt;br&gt;&lt;ul&gt;&lt;li&gt;&lt;span style=&quot;background-color: rgb(255, 255, 255);&quot;&gt;идентификатор грузовика,&lt;br&gt;&lt;/span&gt;&lt;/li&gt;&lt;li&gt;&lt;span style=&quot;background-color: rgb(255, 255, 255);&quot;&gt;производитель грузовика,&lt;/span&gt;&lt;/li&gt;&lt;li&gt;&lt;span style=&quot;background-color: rgb(255, 255, 255);&quot;&gt;дата выпуска грузовика (год)&lt;/span&gt;&lt;/li&gt;&lt;/ul&gt;&lt;/span&gt;" style="rounded=0;whiteSpace=wrap;html=1;align=left;" parent="1" vertex="1">
          <mxGeometry x="30" y="370" width="170" height="170" as="geometry" />
        </mxCell>
        <mxCell id="43hzGaEq3vHwYV2Zz9O_-16" value="" style="endArrow=none;dashed=1;html=1;rounded=0;" parent="1" edge="1">
          <mxGeometry width="50" height="50" relative="1" as="geometry">
            <mxPoint x="100" y="600" as="sourcePoint" />
            <mxPoint x="100" y="540" as="targetPoint" />
          </mxGeometry>
        </mxCell>
        <mxCell id="43hzGaEq3vHwYV2Zz9O_-17" value="&lt;b&gt;Справочник&amp;nbsp; доставок.&lt;/b&gt;&lt;br style=&quot;border-color: var(--border-color);&quot;&gt;&lt;span style=&quot;background-color: rgb(255, 255, 255);&quot;&gt;В таблице представлены:&lt;br&gt;&lt;ul&gt;&lt;li&gt;&lt;span style=&quot;background-color: rgb(255, 255, 255);&quot;&gt;идентификатор доставки,&lt;br&gt;&lt;/span&gt;&lt;/li&gt;&lt;li&gt;&lt;span style=&quot;background-color: rgb(255, 255, 255);&quot;&gt;наименование клиента, которому отправлена доставка (связь со справочником клиентов),&lt;/span&gt;&lt;/li&gt;&lt;li&gt;&lt;span style=&quot;background-color: rgb(255, 255, 255);&quot;&gt;вес посылки,&lt;br&gt;&lt;/span&gt;&lt;/li&gt;&lt;li&gt;&lt;span style=&quot;background-color: rgb(255, 255, 255);&quot;&gt;идентификатор грузовика,на котором отправлена &lt;br&gt;доставка (связь со справочником&amp;nbsp;грузовиков),&lt;/span&gt;&lt;/li&gt;&lt;li&gt;идентификатор водителя, который осуществлял &lt;br&gt;доставку (связь со справочником&amp;nbsp;водителей),&lt;br&gt;&lt;/li&gt;&lt;li&gt;город клиента (связь со справочником городов),&lt;/li&gt;&lt;li&gt;дата доставки&lt;/li&gt;&lt;/ul&gt;&lt;/span&gt;" style="rounded=0;whiteSpace=wrap;html=1;align=left;" parent="1" vertex="1">
          <mxGeometry x="10" y="870" width="250" height="290" as="geometry" />
        </mxCell>
        <mxCell id="43hzGaEq3vHwYV2Zz9O_-18" value="" style="endArrow=none;dashed=1;html=1;rounded=0;" parent="1" edge="1">
          <mxGeometry width="50" height="50" relative="1" as="geometry">
            <mxPoint x="180" y="870" as="sourcePoint" />
            <mxPoint x="230" y="820" as="targetPoint" />
          </mxGeometry>
        </mxCell>
      </root>
    </mxGraphModel>
  </diagram>
</mxfile>
